<?xml version="1.0" standalone="no"?>
<!DOCTYPE svg PUBLIC "-//W3C//DTD SVG 20010904//EN"
 "http://www.w3.org/TR/2001/REC-SVG-20010904/DTD/svg10.dtd">
<svg version="1.0" xmlns="http://www.w3.org/2000/svg"
 width="450.000000pt" height="386.000000pt" viewBox="0 0 450.000000 386.000000"
 preserveAspectRatio="xMidYMid meet">
<metadata>
Created by potrace 1.10, written by Peter Selinger 2001-2011
</metadata>
<g transform="translate(0.000000,386.000000) scale(0.100000,-0.100000)"
fill="#008b8b" stroke="none">
<path d="M3843 2777 c-34 -29 -58 -54 -52 -55 5 -2 31 14 57 35 70 58 81 62
40 14 -20 -24 -40 -56 -43 -72 -5 -21 -12 -29 -29 -29 -12 0 -27 -5 -33 -11
-7 -7 -13 -7 -17 -1 -3 6 -38 0 -88 -15 -46 -14 -101 -27 -123 -30 -59 -7 -68
-9 -88 -17 -10 -5 -21 -6 -24 -2 -3 3 -12 1 -19 -5 -20 -16 -87 -49 -100 -49
-7 0 -14 -3 -16 -7 -4 -10 -75 -43 -92 -43 -25 0 -180 -77 -165 -82 9 -3 5 -7
-10 -11 l-23 -6 4 102 3 101 114 20 c102 19 115 24 134 50 l20 28 -34 -7 c-19
-5 -74 -15 -124 -24 -75 -14 -90 -19 -87 -34 2 -9 -2 -17 -8 -17 -5 0 -10 15
-10 34 0 38 -15 55 -33 37 -6 -6 -20 -11 -32 -10 -11 0 -14 3 -7 6 21 8 13 25
-10 21 -16 -2 -24 -11 -26 -29 -3 -23 0 -25 26 -21 27 4 28 2 24 -32 -3 -27
-9 -36 -23 -36 -21 0 -38 -22 -21 -28 8 -2 12 -39 11 -120 -1 -83 -4 -103 -8
-70 -9 66 -18 69 -17 6 0 -43 5 -58 25 -77 20 -19 24 -32 22 -67 -3 -49 0 -51
38 -28 25 15 31 14 103 -15 58 -23 83 -28 100 -22 22 9 22 9 3 16 -11 4 -42
17 -70 30 -27 13 -60 26 -72 30 -13 3 -23 11 -23 17 0 19 -25 1 -30 -23 -3
-13 -12 -24 -19 -24 -9 0 -14 25 -18 85 -3 47 -5 92 -4 100 0 8 2 51 5 95 4
81 21 193 26 165 1 -8 1 -78 1 -155 -1 -77 2 -135 6 -129 8 11 167 59 313 95
47 11 86 22 88 23 1 2 0 10 -4 19 -5 15 -8 15 -23 -3 -10 -12 -43 -25 -91 -35
-41 -8 -106 -24 -144 -35 -111 -32 -88 -15 28 21 58 18 106 35 106 39 0 4 11
5 24 3 13 -3 27 0 30 6 5 7 1 9 -11 4 -12 -4 -15 -3 -8 5 6 5 28 15 50 21 32
8 44 8 63 -5 13 -8 29 -13 35 -10 9 3 9 5 0 5 -13 1 -53 36 -53 46 0 9 28 5
32 -5 2 -6 21 -4 49 4 64 20 166 10 197 -17 12 -11 22 -17 22 -12 0 5 5 4 12
-3 9 -9 9 -15 0 -24 -14 -14 -16 -48 -3 -48 14 0 21 70 9 96 -13 27 -59 40
-113 30 -20 -4 -35 -3 -35 2 0 11 76 32 114 32 14 0 28 5 31 10 4 6 10 8 15 5
5 -3 19 -1 31 6 28 15 39 -1 39 -60 0 -43 0 -43 -30 -37 -27 5 -30 3 -30 -19
0 -19 5 -25 23 -24 21 0 21 1 2 9 -18 8 -18 9 6 9 25 1 26 -1 19 -41 -18 -110
-25 -124 -125 -237 -42 -47 -183 -140 -312 -205 -60 -31 -113 -56 -117 -56 -4
0 -31 -11 -61 -24 -59 -27 -331 -120 -465 -159 -109 -32 -238 -60 -420 -92
-328 -57 -416 -69 -710 -94 -387 -33 -501 -41 -582 -41 -78 0 -85 -3 -69 -29
9 -14 8 -14 386 5 357 18 794 75 1135 148 468 101 894 269 1137 448 29 21 56
39 60 40 21 6 109 121 137 178 28 58 31 76 34 179 4 105 7 118 34 165 17 28
41 64 54 79 24 28 24 47 1 46 -7 0 -40 -23 -74 -52z"/>
<path d="M2878 2609 c-14 -10 -80 -26 -163 -38 -77 -12 -183 -29 -235 -37
-249 -40 -356 -56 -490 -75 -80 -11 -162 -26 -182 -34 -20 -8 -65 -17 -100
-21 -35 -3 -67 -9 -73 -13 -5 -3 -25 -6 -44 -7 -45 -2 -122 -12 -203 -26 -53
-9 -65 -14 -60 -26 5 -13 2 -13 -18 1 -15 11 -28 13 -35 7 -6 -5 -37 -10 -68
-11 -31 -1 -57 -6 -57 -11 0 -4 9 -8 20 -8 11 0 20 -5 20 -11 0 -6 15 -8 43
-4 44 7 81 -8 146 -57 26 -19 43 -16 35 7 -4 8 -10 12 -15 9 -5 -3 -28 5 -52
18 -63 34 -84 58 -52 58 8 0 15 -4 15 -10 0 -11 4 -11 245 31 94 17 193 32
222 36 32 3 50 10 47 17 -3 8 41 17 133 30 76 10 280 40 453 67 173 27 351 54
395 60 100 13 114 17 96 28 -10 6 -5 11 18 16 17 3 33 10 36 14 9 15 -54 6
-77 -10z m-1645 -296 c-7 -2 -19 -2 -25 0 -7 3 -2 5 12 5 14 0 19 -2 13 -5z"/>
<path d="M3737 2600 c3 -11 9 -20 15 -20 5 0 4 9 -2 20 -6 11 -12 20 -14 20
-2 0 -2 -9 1 -20z"/>
<path d="M3555 2544 c-17 -13 -18 -16 -5 -24 20 -13 27 -12 52 1 21 11 21 12
3 25 -23 17 -25 17 -50 -2z"/>
<path d="M2680 2494 c-237 -66 -362 -96 -542 -133 l-138 -28 0 48 c0 27 -4 49
-10 49 -5 0 -10 -13 -10 -29 0 -16 -4 -41 -10 -55 -9 -25 -4 -31 23 -27 4 0 7
-3 7 -8 0 -5 -26 -12 -57 -15 -108 -13 -598 -102 -613 -111 -5 -3 -50 26 -101
63 -89 67 -93 69 -143 65 -65 -5 -309 -43 -315 -49 -10 -9 70 -2 174 16 60 10
111 17 113 15 2 -1 2 -18 0 -36 l-3 -34 -310 11 c-170 7 -312 10 -314 8 -2 -2
1 -9 7 -16 5 -7 25 -51 42 -98 18 -47 40 -103 50 -125 9 -22 20 -48 23 -57 4
-11 17 -18 32 -18 15 0 24 4 20 10 -3 5 -12 7 -20 3 -9 -3 -15 1 -15 11 0 9
-4 16 -10 16 -5 0 -10 4 -10 10 0 5 7 7 15 4 8 -4 15 -1 15 5 0 6 -4 11 -10
11 -5 0 -10 5 -10 10 0 6 7 10 16 10 8 0 13 4 10 9 -3 5 22 16 56 24 79 20
100 11 96 -40 -2 -20 -9 -38 -16 -41 -9 -3 -11 3 -7 21 4 14 3 33 -2 42 -9 15
-11 15 -22 1 -8 -9 -9 -16 -3 -16 6 0 8 -16 5 -39 -5 -35 -3 -40 25 -54 29
-14 31 -13 51 9 21 24 41 31 41 15 0 -5 3 -17 6 -25 4 -12 2 -15 -9 -11 -8 4
-17 0 -20 -8 -7 -19 -85 -33 -100 -18 -14 14 -40 14 -32 0 4 -5 18 -14 31 -19
13 -5 24 -15 24 -22 0 -18 157 -174 166 -165 4 3 -30 45 -76 91 l-82 85 42 11
c50 14 56 10 80 -57 10 -26 30 -81 45 -120 l28 -73 54 0 c30 0 120 4 201 10
81 5 217 14 302 20 559 38 1073 125 1455 247 300 96 690 285 684 331 -2 9 1
35 5 56 9 49 -5 60 -53 40 -38 -16 -66 -12 -58 9 4 11 -16 38 -28 37 -16 -1
-75 31 -75 41 0 6 -6 9 -14 6 -7 -3 -17 -2 -22 2 -13 12 -74 22 -74 13 0 -4
14 -13 30 -19 17 -6 28 -7 24 -2 -10 17 5 9 32 -16 14 -13 29 -23 33 -21 3 2
17 -2 31 -11 24 -13 24 -14 2 -10 -12 3 -20 1 -16 -4 3 -5 15 -9 28 -9 13 0
31 -9 42 -21 16 -17 16 -22 4 -29 -22 -14 -33 -12 -26 5 3 8 3 15 0 15 -11 0
-31 -25 -27 -35 2 -6 -17 -19 -41 -30 l-43 -20 -54 21 c-54 22 -54 22 -75 3
-12 -11 -28 -17 -37 -13 -9 3 -23 1 -33 -4 -29 -16 32 -25 63 -9 22 12 32 12
58 1 44 -18 96 -11 150 21 31 17 50 24 57 17 9 -9 -19 -26 -117 -67 -22 -9
-52 -23 -67 -31 -37 -20 -148 -61 -228 -85 -36 -10 -83 -26 -105 -35 -44 -18
-199 -57 -313 -79 -40 -8 -77 -17 -81 -20 -17 -10 -301 -50 -476 -66 -243 -23
-1301 -11 -1285 14 3 5 87 9 186 10 100 1 180 5 177 10 -2 4 -18 7 -35 7 -29
0 -30 2 -24 32 l6 32 -24 -23 c-30 -29 -85 -40 -192 -41 -66 0 -83 3 -88 16
-8 21 -8 21 14 27 11 3 20 1 20 -4 0 -11 148 -11 175 1 12 6 -8 7 -52 3 -43
-3 -73 -2 -73 4 0 5 17 10 38 11 70 4 114 14 104 24 -5 5 -19 4 -36 -3 -33
-16 -46 -2 -46 50 0 46 -10 34 -13 -15 -2 -33 -6 -39 -27 -42 -14 -2 -31 -11
-37 -20 -14 -18 -16 -12 -15 43 1 16 -4 35 -10 42 -8 10 -4 13 17 13 24 0 27
-3 23 -25 -3 -15 -1 -25 6 -25 6 0 13 11 14 25 2 28 -37 63 -49 44 -4 -7 -11
-9 -17 -5 -6 3 -14 1 -18 -5 -5 -8 -3 -9 6 -4 9 5 11 4 6 -4 -4 -6 -11 -9 -16
-6 -5 3 -13 -2 -18 -11 -8 -15 -11 -12 -17 14 -3 17 -5 35 -3 39 2 5 40 9 86
10 45 1 81 -1 78 -5 -2 -4 9 -7 24 -7 15 0 26 3 23 8 -2 4 5 7 16 7 10 0 21
-6 24 -12 2 -7 7 -11 10 -8 3 3 3 10 -1 16 -10 16 -522 30 -522 15 0 -7 37
-11 108 -11 59 0 112 -4 119 -8 10 -6 53 -115 53 -134 0 -4 -6 -5 -13 -3 -7 3
-21 35 -31 71 -11 38 -22 62 -28 56 -5 -5 -4 -20 2 -37 6 -15 9 -30 6 -32 -2
-3 -10 12 -17 31 -13 36 -20 42 -33 29 -4 -4 -17 -8 -29 -10 -83 -8 -107 -16
-107 -34 0 -11 -7 -19 -16 -19 -8 0 -13 4 -10 8 3 5 -1 20 -9 35 -7 14 -11 28
-7 31 3 3 0 6 -7 6 -7 0 -11 8 -9 17 2 10 -8 29 -21 43 l-23 25 23 3 c13 2 25
-1 27 -7 2 -7 43 -11 114 -11 94 0 113 -3 124 -17 12 -17 13 -17 14 3 0 19 6
20 140 22 87 2 140 -1 140 -7 0 -5 -17 -12 -37 -14 l-38 -4 43 -1 c38 -2 42 0
42 22 0 14 5 28 10 31 6 4 10 -9 10 -32 1 -21 6 -51 13 -66 10 -24 11 -13 9
72 -3 88 -2 101 13 101 21 0 75 -28 75 -39 0 -4 11 -13 24 -19 13 -6 40 -25
60 -42 l36 -32 0 -125 c0 -106 -2 -124 -15 -120 -8 4 -17 2 -20 -3 -4 -6 5
-10 19 -10 14 0 26 -5 26 -10 0 -14 460 -10 645 5 l140 12 -215 -5 c-118 -2
-293 -5 -388 -6 l-172 -1 -1 105 c0 58 -3 117 -5 133 -5 29 0 33 51 41 132 21
608 107 615 111 9 6 38 -4 120 -44 30 -14 57 -26 60 -26 3 -1 19 -9 37 -18 17
-9 34 -13 37 -8 3 5 -3 11 -14 14 -11 3 -20 9 -19 14 3 19 -2 27 -10 14 -11
-17 -31 -6 -31 18 0 13 15 20 61 30 69 14 79 9 79 -41 0 -15 4 -29 8 -32 5 -3
8 19 8 49 -1 30 -3 55 -6 55 -3 0 -45 -9 -94 -20 -125 -28 -155 -26 -143 7 1
4 18 8 37 10 27 2 31 0 20 -8 -12 -8 -11 -10 5 -7 11 2 20 10 20 18 0 16 10
17 60 6 23 -5 25 -4 10 3 -18 8 -18 10 -3 16 9 4 22 4 28 0 5 -3 10 -1 10 4 0
6 7 11 15 11 8 0 15 -4 15 -10 0 -5 8 -10 18 -10 14 0 15 2 2 10 -19 12 -13
17 30 23 19 3 50 9 69 13 25 5 32 4 27 -4 -4 -7 -2 -12 3 -12 6 0 11 8 11 19
0 14 10 20 38 24 20 4 51 9 67 13 23 4 26 3 15 -5 -13 -9 -12 -11 3 -11 11 0
21 9 24 20 6 22 29 27 35 9 3 -9 12 -9 34 -1 28 10 28 10 4 12 l-25 1 25 10
c14 6 37 8 53 5 20 -4 27 -1 27 9 0 18 12 19 29 3 10 -10 12 -10 7 -1 -9 16
86 45 96 29 9 -14 15 -7 23 27 6 24 4 27 -16 26 -13 0 -112 -25 -219 -55z
m-563 -160 c-3 -3 -12 -4 -19 -1 -8 3 -5 6 6 6 11 1 17 -2 13 -5z m1453 -44
c-35 -27 -60 -34 -74 -20 -8 10 -7 12 7 7 9 -4 17 -2 17 2 0 5 12 14 28 19 42
16 49 13 22 -8z m9 -66 c-17 -20 -150 -94 -266 -147 -275 -126 -655 -236
-1021 -297 -154 -26 -281 -42 -592 -75 -25 -2 -79 -9 -120 -14 -41 -5 -129
-13 -195 -16 -66 -4 -140 -8 -165 -10 -25 -1 -103 -4 -175 -6 -100 -3 -129 -1
-127 9 1 6 -2 12 -8 12 -5 0 -10 8 -10 19 0 10 -7 35 -15 55 -9 20 -13 42 -9
48 4 7 3 8 -4 4 -7 -4 -12 -1 -12 8 0 8 -2 21 -5 29 -5 11 5 13 47 11 29 -1
251 -6 493 -10 647 -10 888 11 1361 120 243 56 592 184 765 280 61 34 64 35
67 15 2 -11 -2 -27 -9 -35z m-1424 26 c3 -5 2 -10 -4 -10 -5 0 -13 5 -16 10
-3 6 -2 10 4 10 5 0 13 -4 16 -10z m-1297 -238 c2 -18 -1 -32 -7 -32 -6 0 -11
2 -11 4 0 2 -3 12 -7 22 -5 12 -3 15 6 9 10 -6 11 -3 1 15 -10 18 -9 21 2 18
7 -3 14 -19 16 -36z m-94 -53 c-27 -30 -34 -22 -16 22 15 38 16 39 24 19 6
-16 4 -28 -8 -41z"/>
<path d="M3489 2512 c15 -28 21 -30 51 -21 25 7 25 7 2 8 -13 1 -20 6 -17 11
3 6 2 10 -4 10 -5 0 -17 3 -26 7 -15 5 -16 3 -6 -15z"/>
<path d="M3420 2505 c0 -5 11 -23 25 -41 14 -18 25 -37 25 -43 0 -6 10 -21 22
-33 l21 -21 -6 22 c-3 12 1 27 9 35 11 12 11 16 -2 26 -12 11 -13 10 -8 -4 11
-29 -13 -17 -50 25 -20 23 -36 38 -36 34z"/>
<path d="M3570 2491 c0 -5 -9 -13 -21 -16 -11 -4 -18 -9 -15 -12 3 -4 23 2 45
12 24 10 55 16 79 13 22 -2 38 0 36 4 -7 11 -124 10 -124 -1z"/>
<path d="M2805 2443 c-60 -18 -189 -54 -285 -80 -181 -48 -186 -50 -179 -58 3
-2 27 2 54 10 26 8 50 13 52 11 2 -2 4 -20 5 -40 1 -20 5 -39 11 -43 5 -3 7
15 5 42 -2 32 1 49 10 52 7 3 12 -4 12 -16 0 -12 5 -21 11 -21 7 0 9 9 6 21
-6 22 -2 24 55 34 36 6 37 5 44 -30 3 -19 10 -35 14 -35 5 0 4 15 -1 32 -13
45 -11 58 6 58 9 0 15 -9 15 -21 0 -15 4 -19 16 -15 9 3 18 6 20 6 3 0 0 9 -5
19 -9 15 -7 20 11 25 12 3 26 0 30 -7 5 -8 9 -6 14 6 3 9 14 17 23 16 10 0 11
-2 4 -6 -19 -7 -16 -23 5 -23 15 0 15 -2 2 -10 -13 -9 -12 -13 8 -29 12 -11
22 -23 22 -28 0 -4 26 -17 58 -29 52 -18 57 -23 60 -52 4 -43 22 -41 22 3 0
19 -5 35 -11 35 -6 0 -8 7 -5 17 4 10 4 14 0 11 -12 -12 -77 22 -106 55 -15
18 -27 43 -26 57 0 17 2 19 5 8 5 -20 30 -23 65 -9 13 5 31 12 41 15 10 3 16
10 12 16 -4 6 -25 2 -55 -9 -28 -11 -50 -17 -50 -15 0 9 92 44 100 39 8 -5 26
13 19 19 -2 1 -53 -12 -114 -31z"/>
<path d="M3401 2471 c-11 -7 -10 -15 5 -40 23 -40 42 -40 36 -1 -5 35 -22 52
-41 41z"/>
<path d="M1540 2449 c-63 -10 -160 -26 -215 -34 -140 -22 -147 -24 -139 -38 4
-7 -2 -4 -14 7 -21 18 -59 16 -48 -3 14 -23 76 -19 282 14 120 20 244 39 274
42 l55 6 -30 13 c-36 16 -23 16 -165 -7z"/>
<path d="M3640 2455 c-14 -8 -43 -20 -65 -27 -24 -7 -33 -13 -23 -15 9 -2 39
6 67 17 27 12 55 19 62 15 7 -5 10 -3 7 5 -6 20 -20 21 -48 5z"/>
<path d="M3732 2430 c-7 -11 -8 -20 -3 -20 5 0 16 -3 24 -6 10 -3 14 2 13 17
-1 30 -18 34 -34 9z"/>
<path d="M3595 2386 c-11 -7 -32 -16 -47 -20 -16 -3 -28 -11 -28 -16 0 -13 1
-13 54 10 25 10 46 24 46 30 0 13 -2 13 -25 -4z"/>
<path d="M3680 2375 c-5 -14 -19 -38 -31 -54 -24 -32 -23 -57 1 -38 8 7 30 29
48 50 28 33 30 40 18 53 -20 19 -25 18 -36 -11z"/>
<path d="M1836 2383 c-8 -9 14 -33 30 -33 8 0 14 -5 14 -11 0 -5 4 -8 9 -4 5
3 12 1 16 -5 3 -5 16 -10 28 -10 22 1 22 1 2 16 -33 25 -92 54 -99 47z"/>
<path d="M2480 2380 c-18 -12 -2 -12 25 0 13 6 15 9 5 9 -8 0 -22 -4 -30 -9z"/>
<path d="M1085 2370 c12 -19 43 -31 51 -18 4 6 3 8 -3 5 -6 -4 -13 0 -17 8 -3
8 -13 15 -21 15 -9 0 -13 -4 -10 -10z"/>
<path d="M1030 2364 c0 -10 33 -33 48 -34 21 0 13 16 -13 28 -30 14 -35 15
-35 6z"/>
<path d="M3020 2345 c0 -24 82 -54 121 -45 36 9 36 9 0 16 -13 2 -44 13 -69
24 -53 24 -52 24 -52 5z"/>
<path d="M2870 2340 c-8 -5 -10 -10 -5 -10 6 0 17 5 25 10 8 5 11 10 5 10 -5
0 -17 -5 -25 -10z"/>
<path d="M3234 2324 c-15 -8 -34 -12 -42 -9 -8 3 -12 0 -9 -7 2 -7 16 -13 30
-13 14 1 23 -3 21 -7 -3 -4 5 -8 18 -7 13 0 18 3 11 5 -7 3 -9 12 -6 20 3 10
21 14 58 14 30 0 56 4 59 9 10 15 -110 10 -140 -5z"/>
<path d="M2640 2320 c0 -14 15 -19 29 -11 9 6 7 10 -8 14 -12 3 -21 1 -21 -3z"/>
<path d="M3002 2290 c0 -19 2 -27 5 -17 2 9 2 25 0 35 -3 9 -5 1 -5 -18z"/>
<path d="M2707 2295 c-21 -7 -41 -16 -44 -19 -10 -9 25 -7 45 3 9 5 28 14 42
19 37 16 1 13 -43 -3z"/>
<path d="M3301 2301 c-25 -16 -1 -31 50 -31 27 0 49 3 49 8 0 4 -21 6 -47 5
-46 -2 -47 -1 -23 12 22 13 23 14 5 14 -11 1 -26 -3 -34 -8z"/>
<path d="M3360 2306 c0 -2 13 -6 29 -8 17 -2 28 -1 25 4 -5 8 -54 12 -54 4z"/>
<path d="M2350 2268 c0 -19 2 -20 10 -8 13 19 13 30 0 30 -5 0 -10 -10 -10
-22z"/>
<path d="M3070 2269 c0 -5 5 -7 10 -4 6 3 10 8 10 11 0 2 -4 4 -10 4 -5 0 -10
-5 -10 -11z"/>
<path d="M2580 2260 c-14 -4 -69 -21 -122 -36 -54 -15 -95 -30 -93 -32 5 -5
224 57 245 69 18 10 3 10 -30 -1z"/>
<path d="M2710 2266 c0 -9 40 -13 46 -5 3 5 -6 9 -20 9 -14 0 -26 -2 -26 -4z"/>
<path d="M3747 2255 c-3 -11 -10 -43 -17 -71 -10 -47 -16 -54 -73 -92 -34 -23
-90 -72 -124 -110 -81 -91 -191 -157 -373 -225 -253 -94 -668 -205 -1065 -286
-420 -84 -496 -90 -735 -52 -185 29 -347 37 -449 21 -45 -7 -84 -11 -86 -8 -3
3 -6 27 -7 55 -2 28 -5 49 -8 48 -3 -2 -14 24 -24 57 -14 49 -20 58 -28 45
-16 -30 -28 -18 -28 29 0 26 4 43 10 39 11 -7 -18 96 -31 110 -14 14 -11 -8 6
-48 20 -48 20 -63 0 -47 -8 7 -15 18 -15 25 0 7 -7 18 -15 25 -7 6 -17 32 -21
56 -3 24 -11 47 -16 50 -22 14 5 -93 34 -135 34 -51 45 -99 29 -130 -7 -12 -9
-27 -5 -33 5 -7 10 -4 15 10 5 13 17 22 29 22 11 0 20 -2 20 -4 0 -2 9 -41 21
-86 16 -67 18 -85 7 -91 -22 -14 -28 -10 -28 19 -1 44 -25 148 -32 136 -4 -5
-3 -28 2 -50 4 -21 10 -56 13 -78 5 -34 4 -38 -13 -33 -10 3 -21 0 -23 -7 -6
-15 -122 -50 -141 -43 -12 5 -13 1 -1 -26 7 -18 16 -52 19 -77 17 -112 38
-217 47 -234 10 -17 8 -18 -18 -12 -15 4 -48 16 -73 28 -25 11 -54 25 -66 30
-11 5 -26 22 -32 36 l-11 27 6 -30 c3 -16 7 -33 9 -36 5 -9 130 -67 159 -75
33 -8 154 25 167 46 7 11 20 15 43 12 31 -4 78 6 130 27 17 7 69 23 295 90 14
5 55 9 92 10 37 1 78 4 90 7 13 3 55 9 93 15 460 62 1061 217 1352 350 23 10
45 19 48 19 25 0 265 132 378 207 96 64 163 102 219 121 102 36 140 67 177
146 31 64 65 189 58 210 -2 6 -6 2 -10 -9z m-100 -238 c-13 -24 -37 -47 -62
-59 -27 -14 -36 -16 -28 -6 7 8 10 18 6 21 -3 4 -1 7 5 7 6 0 14 9 17 20 4 11
10 18 15 15 4 -3 11 2 14 11 3 8 11 12 16 9 6 -4 10 -3 9 2 -3 15 1 20 16 20
11 0 10 -8 -8 -40z m-407 -252 c0 -8 -170 -91 -285 -138 -363 -149 -736 -231
-1095 -242 -149 -4 -145 3 12 19 31 3 91 13 133 21 43 9 84 14 92 11 8 -3 12
-2 9 3 -3 5 13 11 37 14 45 6 61 10 117 26 19 6 49 11 65 11 17 0 35 4 40 9 6
5 28 11 50 13 22 3 55 12 73 22 21 11 32 13 32 5 0 -8 4 -8 13 -1 7 6 33 14
57 18 25 4 50 11 57 16 6 5 28 10 47 11 20 1 36 6 36 10 0 5 4 6 9 2 5 -3 20
-1 33 4 28 12 62 23 66 22 1 -1 19 6 40 15 20 9 46 17 57 19 40 7 68 18 195
70 58 24 106 44 108 44 1 1 2 -1 2 -4z m-775 -324 c-6 -5 -21 -12 -35 -15
l-25 -7 25 15 c28 17 50 21 35 7z m-1335 -14 c46 -6 188 -27 220 -33 29 -5 59
-8 264 -27 82 -8 159 -12 172 -9 14 2 24 0 24 -7 0 -6 4 -11 10 -11 5 0 7 7 4
15 -5 12 5 15 57 16 35 0 75 2 89 4 14 2 63 6 110 9 47 2 100 8 118 12 24 5
32 3 32 -7 1 -10 3 -10 10 2 9 15 50 24 143 34 45 4 -15 -17 -108 -39 -5 -2
-30 -8 -54 -15 -23 -7 -46 -10 -49 -7 -3 3 -10 2 -16 -3 -17 -14 -212 -52
-230 -45 -9 3 -16 1 -16 -4 0 -6 -15 -13 -32 -16 -37 -5 -180 -29 -188 -31
-12 -4 -78 -15 -110 -19 -19 -3 -59 -10 -89 -16 -69 -13 -101 -13 -101 1 0 5
5 7 12 3 7 -4 8 -3 4 5 -5 8 -12 9 -19 2 -7 -5 -41 -14 -77 -20 -75 -13 -81
-14 -96 -23 -6 -4 -21 -9 -35 -12 -13 -2 -58 -16 -99 -31 -78 -28 -133 -38
-124 -23 3 5 -13 6 -35 2 -23 -4 -41 -5 -41 -3 0 2 -9 56 -20 119 -11 63 -20
116 -20 118 0 1 8 2 19 2 10 0 35 7 54 15 74 31 147 9 132 -39 -4 -12 -9 -31
-12 -43 -5 -22 -7 -21 -42 19 -22 24 -42 39 -49 34 -7 -4 -11 -29 -10 -60 l1
-54 24 15 c26 17 30 33 9 33 -8 0 -17 7 -20 16 -14 37 -3 35 35 -6 31 -33 43
-40 49 -30 7 11 12 11 23 2 15 -13 12 -58 -4 -68 -5 -3 -9 -12 -9 -21 0 -14 3
-14 20 2 13 12 20 31 20 55 0 29 -5 39 -20 43 -21 5 -28 29 -7 25 19 -4 20 57
1 86 -9 14 -20 23 -25 20 -5 -3 -6 1 -3 9 5 13 23 14 104 4z m-193 -13 c-3 -3
-12 -4 -19 -1 -8 3 -5 6 6 6 11 1 17 -2 13 -5z m-79 -13 c11 -7 10 -10 -3 -15
-9 -3 -22 -3 -27 0 -7 5 -9 -2 -6 -20 3 -14 1 -29 -3 -32 -5 -3 -9 -10 -9 -15
0 -6 4 -8 9 -5 11 7 34 -81 25 -95 -3 -5 0 -16 6 -24 7 -8 10 -21 7 -28 -7
-20 26 -54 51 -52 12 1 22 -2 22 -7 0 -4 -13 -8 -29 -8 -16 0 -36 -3 -44 -6
-11 -4 -19 6 -27 33 -7 21 -19 42 -28 47 -10 6 -11 10 -3 16 15 8 -2 165 -20
186 -13 16 -6 19 61 33 3 0 11 -3 18 -8z m-76 -107 c9 -56 11 -84 4 -83 -14 1
-53 17 -45 18 4 1 0 34 -7 74 -18 91 -18 85 9 80 21 -4 25 -14 39 -89z m-74
49 c1 -55 18 -127 31 -131 6 -2 9 -7 6 -12 -3 -4 4 -6 16 -3 18 5 20 3 14 -15
-5 -17 -3 -21 9 -16 11 4 18 -6 26 -38 7 -23 14 -46 16 -49 2 -3 -10 -6 -25
-6 -26 0 -30 5 -37 41 -4 23 -7 47 -7 55 1 9 -2 10 -10 2 -7 -7 -7 -22 2 -52
16 -52 1 -71 -56 -73 -30 -1 -38 2 -37 17 1 9 -1 17 -6 17 -10 0 -33 166 -25
179 3 6 3 11 -2 11 -6 0 -15 79 -9 80 1 0 19 7 41 15 54 19 53 20 53 -22z"/>
<path d="M993 1233 c9 -9 19 -14 23 -11 10 10 -6 28 -24 28 -15 0 -15 -1 1
-17z"/>
<path d="M982 1161 c-11 -7 -11 -9 1 -14 8 -3 23 1 34 8 17 14 17 14 -2 15
-11 0 -26 -4 -33 -9z"/>
<path d="M1942 2251 c-9 -5 -10 -15 -4 -32 5 -13 6 -33 2 -44 -4 -11 -6 -23
-4 -27 3 -4 0 -9 -6 -13 -6 -4 -6 -12 0 -23 5 -9 12 -34 15 -54 3 -21 9 -38
13 -38 4 0 52 9 107 20 55 12 116 23 135 26 54 8 140 36 140 46 0 4 -10 6 -22
3 -84 -21 -354 -72 -358 -69 -4 5 -2 125 3 130 1 1 31 8 67 14 36 7 74 16 85
20 36 15 -57 11 -108 -4 l-46 -14 -3 34 c-2 24 -6 31 -16 25z"/>
<path d="M1865 2230 c-3 -5 -1 -10 4 -10 6 0 11 5 11 10 0 6 -2 10 -4 10 -3 0
-8 -4 -11 -10z"/>
<path d="M2350 2230 c-8 -5 -10 -10 -5 -10 6 0 17 5 25 10 8 5 11 10 5 10 -5
0 -17 -5 -25 -10z"/>
<path d="M2602 2229 c-13 -5 -28 -7 -33 -3 -5 3 -9 1 -9 -5 0 -11 -65 -27 -89
-22 -7 1 -10 -2 -7 -7 5 -9 -16 -15 -89 -25 -11 -1 -24 -5 -30 -8 -9 -5 -23
-5 -42 1 -5 1 6 8 22 16 29 14 29 14 -20 8 -27 -4 -52 -8 -54 -10 -2 -2 13
-11 32 -20 34 -16 40 -16 101 0 35 10 75 15 88 11 15 -4 19 -3 10 3 -9 6 11
16 65 31 74 21 80 21 117 6 50 -21 59 -11 10 11 -22 10 -41 19 -44 20 -3 2
-16 -2 -28 -7z"/>
<path d="M2793 2226 c20 -20 49 -24 55 -7 3 8 0 11 -7 7 -6 -4 -11 -2 -11 3 0
6 -12 11 -26 11 -22 0 -24 -2 -11 -14z"/>
<path d="M1122 2190 c0 -30 6 -43 24 -55 23 -15 24 -14 24 5 0 12 -4 19 -9 16
-5 -4 -7 4 -3 16 4 15 2 19 -7 13 -10 -5 -11 -2 -7 13 4 13 1 22 -8 25 -11 5
-15 -3 -14 -33z"/>
<path d="M1695 2199 c-4 -6 -5 -12 -2 -15 2 -3 7 2 10 11 7 17 1 20 -8 4z"/>
<path d="M1850 2195 c0 -17 -25 -20 -35 -5 -4 6 -21 8 -43 4 -20 -4 -43 -7
-49 -7 -9 0 -13 -21 -13 -72 l0 -73 38 14 c20 7 54 13 75 14 l37 0 0 70 c0 39
-2 70 -5 70 -3 0 -5 -7 -5 -15z m-26 -31 c24 -23 20 -60 -6 -69 -40 -12 -88
-16 -88 -7 0 5 -3 24 -6 41 -5 26 -3 32 17 40 36 15 66 13 83 -5z"/>
<path d="M2588 2193 c7 -3 16 -2 19 1 4 3 -2 6 -13 5 -11 0 -14 -3 -6 -6z"/>
<path d="M2873 2179 c-6 -20 -11 -21 -67 -15 -34 3 -56 2 -51 -3 14 -12 107
-42 100 -32 -2 5 2 15 11 22 16 13 20 12 87 -16 13 -5 17 -2 17 12 0 12 -13
25 -35 36 -46 22 -56 21 -62 -4z"/>
<path d="M3281 2187 c-19 -7 -36 -17 -38 -24 -3 -7 12 -4 36 8 23 11 41 22 41
24 0 6 3 7 -39 -8z"/>
<path d="M1600 2181 c0 -5 5 -13 10 -16 6 -3 10 -2 10 4 0 5 -4 13 -10 16 -5
3 -10 2 -10 -4z"/>
<path d="M1214 2149 c3 -17 6 -49 6 -70 0 -22 5 -39 10 -39 6 0 22 -12 35 -27
18 -21 24 -24 25 -12 0 9 -13 27 -30 40 -31 25 -41 73 -17 82 10 4 10 6 0 6
-7 1 -13 5 -13 10 0 5 10 7 23 5 12 -2 15 -1 7 2 -8 4 -19 13 -23 20 -15 26
-30 15 -23 -17z"/>
<path d="M2541 2176 c2 -2 15 -9 29 -15 24 -11 24 -11 6 3 -16 13 -49 24 -35
12z"/>
<path d="M2730 2173 c0 -10 -51 -23 -97 -24 -13 -1 -23 -5 -23 -9 0 -4 -19
-11 -42 -15 -24 -5 -45 -9 -48 -9 -112 -28 -190 -52 -190 -58 0 -4 6 -8 13 -8
12 0 170 38 197 48 28 10 65 16 102 16 28 1 34 4 26 14 -8 9 -4 12 14 12 28 0
67 25 55 36 -4 4 -7 3 -7 -3z"/>
<path d="M864 2163 c7 -7 87 -5 95 3 2 2 -20 4 -49 4 -29 0 -50 -3 -46 -7z"/>
<path d="M3610 2135 c-101 -105 -297 -208 -640 -338 -36 -14 -74 -28 -85 -33
-11 -4 -33 -9 -49 -11 -16 -2 -34 -7 -40 -12 -6 -5 -45 -17 -86 -27 -41 -10
-77 -21 -80 -24 -3 -3 -18 -7 -35 -8 -16 -2 -34 -8 -40 -13 -5 -5 -26 -9 -48
-9 -23 0 -36 -4 -32 -10 3 -6 -5 -10 -19 -11 -14 -1 -36 -2 -48 -2 -13 -1 -26
-5 -29 -10 -4 -5 -27 -9 -53 -9 -25 -1 -46 -4 -46 -8 0 -4 -11 -5 -25 -2 -14
2 -25 0 -25 -4 0 -9 -25 -13 -92 -14 -21 -1 -40 -5 -43 -11 -4 -5 -32 -9 -63
-9 -42 0 -53 -3 -42 -10 11 -8 6 -10 -20 -8 -64 3 -131 -2 -126 -10 3 -5 -18
-7 -47 -5 -29 2 -47 0 -40 -4 6 -4 -14 -8 -45 -8 -93 0 -302 -17 -298 -24 2
-3 -104 -6 -235 -6 -131 0 -239 -3 -239 -7 0 -30 575 -39 808 -13 333 39 710
113 982 194 223 66 536 197 672 282 112 69 247 185 248 212 0 12 -4 9 -40 -28z"/>
<path d="M1565 2155 c-5 -1 -36 -8 -67 -15 l-58 -11 0 -70 c0 -38 1 -69 3 -69
1 0 24 7 51 15 27 8 62 15 77 15 27 0 27 0 27 70 -1 67 -4 74 -33 65z m15 -42
c0 -67 -8 -75 -81 -88 l-37 -7 -4 49 c-3 26 -4 49 -3 50 1 2 57 12 118 22 4 0
7 -11 7 -26z"/>
<path d="M1420 2139 c0 -5 5 -7 10 -4 6 3 10 8 10 11 0 2 -4 4 -10 4 -5 0 -10
-5 -10 -11z"/>
<path d="M3100 2119 c-148 -53 -413 -121 -582 -150 -55 -9 -61 -8 -128 26 -38
19 -72 35 -75 35 -3 0 -5 -13 -5 -28 0 -21 7 -32 25 -40 42 -19 53 -13 17 9
-18 12 -31 24 -28 27 7 6 66 -18 66 -28 0 -10 66 -29 87 -25 10 2 52 9 93 16
41 7 80 16 86 21 6 4 13 5 16 2 6 -5 297 70 326 84 9 5 46 17 82 27 36 9 74
24 85 31 28 20 2 17 -65 -7z"/>
<path d="M3789 2114 c-7 -9 -1 -12 31 -11 22 1 40 5 40 10 0 4 -3 7 -7 8 -5 0
-18 2 -31 3 -12 2 -27 -3 -33 -10z"/>
<path d="M2894 2106 c31 -18 56 -22 41 -7 -6 5 -23 13 -40 16 l-30 7 29 -16z"/>
<path d="M810 2086 c0 -9 5 -16 10 -16 6 0 10 4 10 9 0 6 -4 13 -10 16 -5 3
-10 -1 -10 -9z"/>
<path d="M1012 2060 c0 -19 2 -27 5 -17 2 9 2 25 0 35 -3 9 -5 1 -5 -18z"/>
<path d="M1090 2039 c0 -22 -4 -38 -9 -34 -6 3 -9 -4 -8 -15 1 -12 8 -20 19
-20 15 0 18 9 18 55 0 30 -4 55 -10 55 -5 0 -10 -18 -10 -41z"/>
<path d="M2777 2069 c7 -7 15 -10 18 -7 3 3 -2 9 -12 12 -14 6 -15 5 -6 -5z"/>
<path d="M1864 2055 c-3 -8 -4 -20 -2 -27 3 -7 7 -1 10 15 6 29 1 36 -8 12z"/>
<path d="M3853 2043 c1 -18 5 -33 10 -33 9 0 8 19 -3 45 -7 16 -8 14 -7 -12z"/>
<path d="M1691 2033 c0 -4 4 -17 9 -28 8 -19 9 -19 9 2 1 12 -3 25 -9 28 -5 3
-10 3 -9 -2z"/>
<path d="M2670 2030 c8 -5 20 -10 25 -10 6 0 3 5 -5 10 -8 5 -19 10 -25 10 -5
0 -3 -5 5 -10z"/>
<path d="M640 2026 c0 -2 7 -7 16 -10 8 -3 12 -2 9 4 -6 10 -25 14 -25 6z"/>
<path d="M605 1979 c-10 -15 3 -25 16 -12 7 7 7 13 1 17 -6 3 -14 1 -17 -5z"/>
<path d="M1420 1969 c0 -5 5 -7 10 -4 6 3 10 8 10 11 0 2 -4 4 -10 4 -5 0 -10
-5 -10 -11z"/>
<path d="M530 1928 c0 -7 6 -22 14 -33 7 -11 16 -60 20 -110 5 -73 3 -100 -12
-142 -17 -48 -17 -58 -3 -147 8 -53 19 -96 24 -96 6 0 7 18 2 43 -20 122 -18
128 41 130 19 1 34 5 34 9 0 11 -33 10 -66 -2 -15 -6 -29 -9 -31 -7 -2 3 4 26
13 53 13 37 15 73 12 151 -5 99 -4 103 16 103 21 0 60 19 41 20 -5 0 -3 5 5
10 11 8 5 9 -20 5 -19 -3 -36 -10 -38 -16 -5 -14 -22 -11 -22 5 0 7 -7 19 -15
26 -12 10 -15 10 -15 -2z"/>
<path d="M2163 1923 c-29 -2 -53 -8 -53 -13 0 -9 18 -8 145 9 l60 9 -50 -1
c-27 0 -74 -2 -102 -4z"/>
<path d="M682 1840 c0 -14 2 -19 5 -12 2 6 2 18 0 25 -3 6 -5 1 -5 -13z"/>
<path d="M756 1733 c15 -60 48 -114 102 -164 77 -71 77 -48 -1 31 -40 42 -67
80 -77 108 -15 49 -34 68 -24 25z"/>
<path d="M650 1688 c0 -20 4 -39 10 -43 5 -3 7 -12 3 -20 -5 -16 5 -19 31 -9
23 9 20 24 -4 24 -15 0 -20 7 -20 28 0 15 -5 34 -10 42 -7 11 -10 6 -10 -22z"/>
<path d="M745 1680 c3 -5 8 -10 11 -10 2 0 4 5 4 10 0 6 -5 10 -11 10 -5 0 -7
-4 -4 -10z"/>
<path d="M590 1610 c-11 -8 -7 -9 15 -4 37 8 45 14 19 14 -10 0 -26 -5 -34
-10z"/>
<path d="M660 1584 c0 -6 27 -105 36 -133 10 -30 12 -3 3 44 -14 80 -19 95
-29 95 -6 0 -10 -3 -10 -6z"/>
<path d="M3239 1473 c-13 -17 -13 -17 6 -3 11 8 22 16 24 17 2 2 0 3 -6 3 -6
0 -17 -8 -24 -17z"/>
<path d="M3182 1454 c-7 -8 -8 -14 -3 -14 10 0 25 19 20 25 -2 1 -10 -3 -17
-11z"/>
<path d="M541 1374 c0 -11 3 -14 6 -6 3 7 2 16 -1 19 -3 4 -6 -2 -5 -13z"/>
<path d="M498 1363 c7 -3 16 -2 19 1 4 3 -2 6 -13 5 -11 0 -14 -3 -6 -6z"/>
<path d="M440 1333 c0 -11 3 -14 8 -7 4 6 14 14 22 17 10 4 8 6 -7 6 -16 1
-23 -5 -23 -16z"/>
<path d="M320 1300 c0 -33 3 -40 18 -38 9 2 23 9 31 16 11 10 16 10 27 -5 7
-10 14 -13 14 -7 0 6 -7 17 -15 24 -8 7 -12 17 -8 23 4 6 -2 8 -16 4 -14 -3
-24 0 -28 9 -10 28 -23 13 -23 -26z m49 -11 c-16 -10 -23 -4 -14 10 3 6 11 8
17 5 6 -4 5 -9 -3 -15z"/>
<path d="M405 1330 c3 -5 10 -10 16 -10 5 0 9 5 9 10 0 6 -7 10 -16 10 -8 0
-12 -4 -9 -10z"/>
<path d="M360 1246 c0 -2 7 -7 16 -10 8 -3 12 -2 9 4 -6 10 -25 14 -25 6z"/>
<path d="M2410 1180 c0 -5 5 -10 11 -10 5 0 7 5 4 10 -3 6 -8 10 -11 10 -2 0
-4 -4 -4 -10z"/>
<path d="M2073 1083 c9 -2 23 -2 30 0 6 3 -1 5 -18 5 -16 0 -22 -2 -12 -5z"/>
<path d="M1805 990 c3 -5 11 -10 16 -10 6 0 7 5 4 10 -3 6 -11 10 -16 10 -6 0
-7 -4 -4 -10z"/>
<path d="M1680 950 c-13 -8 -12 -10 3 -10 9 0 17 5 17 10 0 12 -1 12 -20 0z"/>
</g>
</svg>
