<?xml version="1.0" standalone="no"?>
<!DOCTYPE svg PUBLIC "-//W3C//DTD SVG 20010904//EN"
 "http://www.w3.org/TR/2001/REC-SVG-20010904/DTD/svg10.dtd">
<svg version="1.0" xmlns="http://www.w3.org/2000/svg"
 width="300.000000pt" height="168.000000pt" viewBox="0 0 300.000000 168.000000"
 preserveAspectRatio="xMidYMid meet">
<metadata>
Created by potrace 1.10, written by Peter Selinger 2001-2011
</metadata>
<g transform="translate(0.000000,168.000000) scale(0.100000,-0.100000)"
fill="#008b8b" stroke="none">
<path d="M2910 1529 c-28 -22 -49 -43 -46 -46 3 -3 25 11 50 31 24 20 47 36
50 36 3 0 -10 -21 -29 -46 -19 -25 -35 -49 -35 -54 0 -5 -8 -11 -18 -14 -16
-5 -17 -13 -12 -56 6 -47 5 -50 -17 -50 -16 0 -23 -6 -23 -20 0 -12 7 -20 18
-20 14 0 15 2 2 10 -13 8 -12 10 3 10 13 0 17 -8 17 -36 0 -33 -2 -36 -23 -30
-16 4 -26 -1 -35 -14 -11 -18 -9 -20 17 -20 25 0 28 -3 23 -22 -3 -13 -44 -61
-91 -108 -131 -130 -295 -215 -641 -331 -369 -124 -846 -198 -1573 -245 -73
-4 -107 -10 -104 -18 3 -7 40 -10 118 -9 866 19 1689 209 2099 486 80 54 69
29 -15 -33 -186 -138 -599 -296 -965 -369 -30 -6 -89 -18 -130 -27 -41 -9 -87
-16 -102 -15 -15 1 -30 -3 -33 -9 -4 -6 -10 -8 -14 -6 -4 3 -36 1 -72 -4 -257
-36 -646 -65 -797 -58 -45 1 -82 0 -82 -4 0 -16 91 -22 355 -22 301 0 372 6
691 65 606 111 1096 317 1246 523 16 23 44 57 61 76 66 73 99 168 96 274 -2
66 11 103 62 167 26 33 29 49 8 49 -4 0 -30 -18 -59 -41z"/>
<path d="M2130 1436 c0 -19 4 -23 20 -19 17 5 20 0 20 -26 0 -24 -4 -31 -19
-31 -11 0 -21 -5 -23 -10 -2 -6 -44 -21 -93 -34 -50 -13 -162 -42 -250 -66
-88 -23 -221 -55 -295 -71 -146 -30 -149 -29 -151 26 -1 26 -2 24 -11 -13 -7
-31 -6 -47 3 -58 9 -12 7 -14 -16 -14 -43 0 -518 -85 -536 -95 -4 -3 -30 11
-56 31 -26 19 -61 45 -77 57 -22 17 -40 21 -75 19 -78 -5 -267 -36 -243 -40
13 -2 66 3 117 12 51 9 95 16 99 16 3 0 6 -16 6 -36 0 -21 4 -33 10 -29 6 4
10 -17 10 -55 0 -34 4 -59 9 -56 5 3 7 42 4 85 l-6 80 27 -3 c14 -1 36 -12 49
-23 12 -11 39 -30 60 -43 25 -14 36 -28 33 -37 -3 -8 -1 -11 4 -8 6 4 10 -29
10 -91 0 -80 -3 -99 -17 -110 -15 -12 -16 -13 -2 -8 10 3 20 1 24 -5 7 -12
427 -13 535 -1 36 3 -66 5 -226 2 l-291 -5 -7 108 c-4 59 -3 112 1 116 7 7
331 68 440 84 16 2 53 9 84 15 52 11 59 10 110 -13 50 -24 52 -26 23 -26 -17
-1 -52 -7 -77 -15 l-47 -14 0 29 c0 34 -16 39 -25 8 -4 -13 -2 -25 5 -29 9 -6
9 -9 0 -15 -12 -8 -7 -76 10 -120 l9 -22 148 29 c84 17 154 36 163 45 13 13
13 15 -5 9 -11 -3 -77 -17 -146 -30 -70 -14 -133 -27 -140 -28 -10 -2 -15 12
-17 54 l-3 56 58 12 c32 6 68 15 81 20 17 8 33 5 62 -10 22 -11 40 -16 40 -10
0 5 -5 10 -11 10 -6 0 -9 6 -6 14 3 8 -1 17 -9 20 -8 3 -14 -1 -14 -10 0 -8
-4 -12 -10 -9 -5 3 -10 15 -10 26 0 16 -6 19 -35 17 -19 -1 -37 1 -41 5 -4 4
2 7 14 7 12 0 22 4 22 10 0 5 15 7 33 5 23 -4 27 -3 12 3 -16 7 -12 10 23 16
24 3 47 4 53 1 5 -4 9 -1 9 5 0 7 8 9 21 5 16 -5 19 -4 14 6 -6 9 -2 11 13 7
12 -4 22 -2 22 4 0 6 13 8 29 6 17 -2 27 0 24 5 -3 5 4 6 17 2 17 -5 20 -4 15
5 -6 10 -1 12 18 8 15 -3 24 -2 22 2 -3 4 6 11 19 14 13 3 32 8 43 12 11 3 8
-1 -7 -11 -15 -10 -18 -14 -7 -11 10 3 23 6 28 6 5 0 9 7 9 15 0 8 7 15 16 15
9 0 12 -5 8 -12 -5 -8 -2 -9 10 -5 10 4 23 7 29 7 7 0 6 5 -3 11 -12 9 -11 10
7 6 13 -3 25 -1 28 4 3 4 13 5 22 2 12 -5 14 -3 8 7 -6 10 -3 12 13 8 12 -4
22 -3 22 1 0 13 79 29 84 17 3 -7 5 -6 5 2 1 7 8 20 16 28 13 14 15 5 14 -78
-1 -51 -4 -79 -6 -63 -7 47 -19 49 -15 3 3 -23 13 -50 23 -61 12 -14 18 -34
17 -59 -1 -35 -4 -39 -22 -33 -36 11 -49 10 -53 -1 -2 -7 9 -16 24 -22 15 -5
36 -13 45 -17 16 -7 18 3 15 128 -2 75 0 134 3 132 3 -1 6 25 7 59 1 33 5 71
10 83 5 13 7 -25 4 -92 l-3 -114 48 15 c27 9 96 28 154 44 58 16 94 29 80 29
-14 0 -47 -6 -74 -14 -53 -16 -73 -19 -63 -8 4 3 44 16 89 29 46 12 74 23 64
23 -23 1 -17 10 10 15 11 2 24 5 29 7 6 2 21 -3 33 -10 13 -7 26 -11 28 -8 2
2 -7 10 -21 17 -48 26 -36 29 114 30 53 1 78 -4 91 -15 9 -8 22 -15 29 -15 12
0 11 -8 -7 -60 -4 -12 -2 -12 7 -4 7 7 13 29 14 49 1 52 -23 68 -87 61 -29 -3
-46 -2 -40 3 10 11 108 32 142 32 22 -1 30 13 13 24 -5 3 -54 -6 -107 -20 -54
-14 -105 -25 -114 -24 -18 2 -36 -4 -115 -42 -33 -16 -89 -39 -125 -53 -94
-35 -151 -62 -145 -68 3 -3 -1 -8 -10 -12 -14 -5 -15 5 -13 81 l3 87 90 14
c64 10 96 20 112 35 13 11 21 22 19 24 -9 9 -192 -30 -203 -44 -10 -12 -12
-10 -15 14 -2 22 -8 28 -25 26 -13 -2 -23 2 -23 7 0 6 -9 10 -20 10 -14 0 -20
-7 -20 -24z m187 -202 c-3 -3 -12 -4 -19 -1 -8 3 -5 6 6 6 11 1 17 -2 13 -5z"/>
<path d="M2085 1385 c-11 -8 -65 -21 -120 -30 -55 -9 -111 -18 -125 -20 -14
-2 -72 -11 -130 -20 -173 -25 -520 -83 -595 -99 -85 -17 -102 -20 -238 -37
-87 -10 -107 -16 -102 -27 4 -12 2 -12 -8 -3 -10 8 -29 8 -67 1 -28 -5 -56 -7
-61 -4 -5 3 -9 1 -9 -4 0 -12 35 -22 82 -22 29 0 36 3 32 15 -4 8 -2 15 4 15
6 0 12 -4 14 -9 2 -6 96 6 220 26 119 20 215 40 212 45 -3 4 -2 8 3 8 11 0
468 67 583 85 52 8 149 23 215 34 65 10 121 24 123 30 2 6 10 11 18 11 8 0 14
5 14 10 0 14 -42 11 -65 -5z"/>
<path d="M2817 1370 c3 -11 7 -20 9 -20 2 0 4 9 4 20 0 11 -4 20 -9 20 -5 0
-7 -9 -4 -20z"/>
<path d="M2660 1330 c-11 -7 -12 -12 -3 -21 14 -14 56 -2 50 14 -5 16 -28 19
-47 7z"/>
<path d="M2526 1302 c2 -3 -4 -11 -14 -18 -16 -12 -16 -13 0 -14 21 0 34 19
21 30 -6 4 -8 5 -7 2z"/>
<path d="M2600 1301 c0 -10 24 -21 47 -21 13 0 13 2 -1 15 -16 16 -46 20 -46
6z"/>
<path d="M2678 1282 c-21 -9 -38 -20 -38 -25 0 -4 13 -1 30 8 16 8 47 15 70
15 23 0 39 4 36 8 -9 14 -61 11 -98 -6z"/>
<path d="M2565 1271 c6 -10 2 -12 -13 -7 -27 9 -35 -6 -16 -32 21 -30 34 -28
34 6 1 27 1 27 18 -7 23 -46 42 -51 42 -11 0 18 -4 29 -10 25 -17 -10 -34 6
-19 17 11 8 10 9 -2 5 -9 -3 -22 0 -29 6 -10 9 -11 9 -5 -2z"/>
<path d="M1928 1217 c-107 -31 -174 -55 -169 -60 5 -5 7 -16 4 -23 -3 -8 0
-14 6 -14 6 0 11 9 11 20 0 13 7 20 19 20 11 0 26 3 35 6 12 5 18 -2 22 -25 4
-17 10 -28 14 -26 5 3 5 18 0 34 -4 16 -6 32 -2 35 13 14 21 4 24 -29 2 -28 6
-33 18 -25 13 9 13 11 0 19 -12 8 -11 11 5 17 11 4 28 16 37 27 17 19 18 19
28 -7 15 -39 40 -61 93 -81 39 -15 47 -22 48 -44 1 -18 3 -21 6 -8 9 33 -6 65
-32 71 -46 12 -122 106 -85 106 6 0 10 -6 10 -14 0 -13 6 -13 43 0 23 8 48 23
55 34 16 26 20 27 -190 -33z m152 23 c-8 -5 -22 -9 -30 -9 -10 0 -8 3 5 9 27
12 43 12 25 0z"/>
<path d="M2725 1249 c-22 -10 -48 -19 -57 -19 -10 0 -18 -5 -18 -11 0 -12 29
-5 73 18 16 8 35 12 42 9 9 -3 12 0 8 10 -3 7 -6 14 -7 13 0 0 -19 -9 -41 -20z"/>
<path d="M863 1235 c-209 -33 -214 -34 -208 -48 4 -7 0 -4 -9 6 -11 15 -19 16
-33 9 -16 -10 -16 -11 9 -21 20 -7 81 -1 258 27 127 21 228 41 224 45 -12 12
-91 6 -241 -18z"/>
<path d="M2440 1235 c0 -6 87 -46 109 -51 7 -1 19 -8 25 -14 8 -8 6 -9 -9 -5
-16 5 -17 5 -5 -3 8 -6 18 -8 22 -6 4 3 17 -3 27 -13 20 -19 20 -19 -1 -32
-18 -11 -20 -11 -14 4 4 12 2 16 -8 12 -8 -3 -16 -1 -19 6 -2 8 -5 8 -11 -1
-4 -7 -2 -12 3 -12 26 0 8 -31 -25 -45 -33 -14 -40 -13 -79 4 -32 14 -46 16
-61 8 -10 -6 -28 -13 -39 -14 -11 -2 -24 -8 -30 -14 -7 -7 -4 -8 9 -3 14 5 17
4 12 -5 -5 -8 4 -7 29 3 25 11 42 13 54 6 27 -14 87 -15 103 -2 8 6 32 19 54
27 l39 16 -25 -20 c-13 -11 -27 -19 -30 -19 -3 1 -40 -15 -84 -36 -43 -20 -81
-34 -84 -32 -2 3 8 11 24 17 16 6 24 13 17 16 -18 7 -55 -17 -49 -32 6 -15
-36 -29 -64 -20 -10 3 -53 -6 -96 -20 -111 -37 -168 -52 -344 -90 l-155 -34
-62 34 -63 35 0 -29 c0 -20 7 -31 25 -39 38 -17 43 -14 15 8 -32 25 -15 25 35
0 48 -25 60 -25 158 -1 42 10 79 15 82 11 6 -10 -132 -38 -297 -60 -311 -41
-612 -47 -1140 -24 -150 7 -208 23 -75 21 149 -2 262 3 248 12 -8 5 -25 7 -38
5 -23 -4 -24 -3 -18 28 7 32 6 32 -9 11 -32 -43 -237 -60 -244 -20 -2 10 3 17
12 17 9 0 16 -4 16 -10 0 -14 88 -11 135 5 l40 13 -45 -4 c-25 -3 -55 -7 -68
-10 -12 -2 -22 0 -22 6 0 5 15 10 34 10 48 0 97 11 90 21 -2 4 -16 4 -30 -1
-14 -6 -27 -10 -29 -10 -1 0 -6 16 -10 36 -7 40 -19 38 -20 -4 0 -20 -6 -28
-22 -30 -13 -2 -23 -8 -23 -13 0 -6 -5 -7 -10 -4 -6 4 -9 19 -8 33 1 15 -1 33
-6 40 -5 8 0 12 13 12 14 0 21 -6 21 -20 0 -11 5 -20 10 -20 6 0 9 13 8 28 -2
26 -5 28 -47 28 -63 0 -75 -14 -55 -61 10 -25 11 -36 3 -33 -6 2 -21 28 -32
58 -17 45 -21 51 -28 35 -4 -11 -8 -14 -8 -7 -1 7 -10 11 -23 8 -13 -3 -45 -8
-72 -11 -34 -5 -45 -10 -38 -17 7 -7 28 -8 59 -3 26 5 53 7 58 5 6 -1 15 -3
22 -3 6 0 10 -5 8 -11 -2 -6 -6 -23 -9 -38 -9 -42 -26 -34 -19 8 4 27 3 36 -6
33 -7 -3 -12 -8 -12 -12 1 -4 1 -24 1 -46 0 -32 4 -40 22 -44 15 -4 30 1 45
15 20 19 23 19 29 5 8 -22 -14 -43 -54 -52 -21 -4 -32 -13 -32 -24 0 -9 31
-48 70 -86 38 -38 70 -65 70 -60 0 5 -30 40 -66 76 l-67 67 38 11 c42 11 55 8
55 -15 0 -8 11 -38 25 -66 14 -29 30 -70 36 -90 10 -38 10 -38 62 -38 29 0
129 5 222 10 683 39 1170 123 1558 266 239 89 457 204 455 241 -1 10 2 30 5
46 9 34 -12 45 -50 28 -19 -9 -29 -9 -40 1 -12 10 -5 14 38 27 29 9 55 23 57
31 4 12 1 12 -19 -1 -49 -32 -77 -32 -145 1 -36 17 -69 28 -74 25 -6 -3 -10
-1 -10 4 0 6 -7 11 -15 11 -8 0 -15 -2 -15 -5z m250 -110 c0 -2 -13 -11 -30
-20 -16 -9 -30 -12 -30 -7 0 5 10 14 23 20 25 12 37 14 37 7z m1 -47 c-14 -41
-247 -159 -448 -229 -266 -93 -543 -155 -883 -198 -270 -35 -635 -66 -853 -72
-76 -3 -79 0 -106 91 -7 25 -18 51 -23 58 -6 7 -9 15 -6 17 3 3 86 1 184 -4
482 -25 926 -5 1234 55 321 63 622 162 830 273 69 37 82 38 71 9z m-366 -116
c-10 -9 -86 -32 -101 -31 -13 0 78 37 96 38 8 1 10 -2 5 -7z m-144 -47 c-18
-8 -36 -15 -40 -15 -13 1 45 29 59 29 8 0 0 -6 -19 -14z m-1801 -36 c0 -10 -4
-19 -8 -19 -4 0 -8 11 -8 24 0 14 4 22 8 20 4 -3 8 -14 8 -25z m1747 15 c-3
-3 -12 -4 -19 -1 -8 3 -5 6 6 6 11 1 17 -2 13 -5z m-1817 -39 c0 -8 -9 -19
-19 -25 -18 -9 -18 -8 -8 20 11 29 27 32 27 5z m1729 21 c-12 -10 -69 -24 -69
-16 0 5 8 11 18 13 22 6 57 8 51 3z"/>
<path d="M2767 1212 c3 -12 -4 -36 -16 -55 -31 -50 -26 -65 10 -31 48 45 52
58 24 84 -23 22 -24 22 -18 2z"/>
<path d="M1205 1190 c-3 -5 12 -18 34 -30 48 -24 75 -26 46 -4 -37 28 -74 44
-80 34z"/>
<path d="M576 1175 c25 -19 40 -19 24 0 -7 8 -20 15 -28 15 -13 0 -12 -3 4
-15z"/>
<path d="M534 1165 c11 -8 27 -15 35 -15 13 1 12 4 -3 15 -11 8 -27 15 -35 15
-13 -1 -12 -4 3 -15z"/>
<path d="M2085 1160 c-3 -5 -1 -10 4 -10 6 0 11 5 11 10 0 6 -2 10 -4 10 -3 0
-8 -4 -11 -10z"/>
<path d="M2210 1157 c0 -17 64 -38 110 -36 19 1 50 -2 68 -6 27 -6 31 -5 26 9
-5 14 3 16 52 17 44 0 53 3 37 9 -27 11 -116 6 -120 -6 -5 -15 -83 -8 -127 10
-46 19 -46 19 -46 3z"/>
<path d="M1675 1147 c-22 -6 -41 -11 -42 -12 -1 0 1 -14 5 -29 7 -25 9 -26 21
-12 9 11 10 16 2 16 -24 0 -9 17 24 27 34 11 35 11 41 -23 9 -47 20 -43 16 6
-4 43 -5 43 -67 27z"/>
<path d="M1545 1116 c-27 -6 -45 -14 -40 -18 6 -4 17 -3 25 3 8 5 27 9 42 9
23 0 28 -5 34 -35 9 -50 20 -43 16 10 -4 49 -3 49 -77 31z"/>
<path d="M1935 1115 c-23 -10 -25 -13 -10 -14 11 0 34 6 50 14 23 10 25 13 10
14 -11 0 -33 -6 -50 -14z"/>
<path d="M2192 1110 c0 -14 2 -19 5 -12 2 6 2 18 0 25 -3 6 -5 1 -5 -13z"/>
<path d="M2440 1120 c-12 -8 -12 -10 2 -15 26 -10 91 -1 94 13 1 7 0 8 -3 2
-2 -5 -16 -10 -29 -10 -14 0 -22 4 -19 10 8 13 -25 13 -45 0z"/>
<path d="M794 1085 c43 -29 56 -31 56 -9 0 8 -5 12 -10 9 -6 -4 -22 0 -35 9
-13 9 -30 16 -36 16 -7 0 5 -11 25 -25z"/>
<path d="M1950 1096 c0 -6 98 -56 110 -56 5 0 10 4 10 9 0 11 -56 32 -64 24
-3 -3 -8 2 -12 11 -5 13 -44 24 -44 12z"/>
<path d="M2821 1064 c-6 -22 -12 -50 -14 -63 -2 -14 -10 -27 -18 -30 -27 -8
-84 -56 -154 -126 -57 -58 -89 -80 -175 -122 -209 -103 -602 -215 -1095 -313
-253 -51 -374 -59 -530 -36 -218 31 -307 37 -385 26 -41 -6 -92 -13 -113 -15
l-37 -5 -1 42 c-2 57 -13 106 -21 92 -4 -5 -3 -28 2 -50 19 -81 22 -77 -93
-119 -41 -15 -48 -21 -43 -39 3 -11 12 -66 21 -121 9 -55 20 -110 26 -123 8
-21 7 -23 -13 -16 -48 15 -79 31 -76 40 2 5 -8 11 -22 12 -14 2 -33 11 -42 19
-21 19 -23 6 -4 -19 18 -25 120 -68 160 -68 27 0 126 27 126 34 0 1 -7 27 -16
57 -13 43 -18 50 -24 34 -4 -11 -4 -28 1 -37 5 -9 6 -23 3 -32 -6 -16 -57 -31
-72 -22 -10 6 -30 125 -34 201 -2 46 0 51 26 64 34 16 49 2 43 -42 -2 -15 0
-27 5 -27 4 0 8 -11 8 -25 0 -17 8 -29 24 -36 15 -7 22 -17 19 -25 -3 -10 0
-12 10 -9 10 5 17 -5 24 -34 9 -34 8 -41 -6 -44 -11 -3 -7 -6 12 -12 19 -5 45
-1 85 13 133 48 303 91 377 97 166 14 571 89 785 146 370 98 660 221 882 372
57 39 126 76 172 93 107 38 152 97 182 239 14 68 11 87 -5 29z m-72 -161 c-8
-10 -24 -28 -36 -40 -18 -17 -23 -18 -23 -7 0 9 7 22 15 30 8 9 15 13 15 9 0
-4 7 1 16 9 21 21 30 20 13 -1z m-494 -303 c-111 -54 -410 -158 -550 -190
-129 -31 -365 -60 -475 -59 l-95 1 140 18 c77 10 171 26 208 35 38 9 75 14 83
11 8 -3 12 -2 9 3 -6 10 76 27 108 23 9 -1 17 2 17 7 0 13 96 34 111 25 8 -4
9 -3 5 4 -5 8 1 12 16 12 43 1 307 79 428 128 111 44 108 37 -5 -18z m-1560
-230 c112 -18 153 -25 230 -35 17 -2 65 -4 109 -5 43 0 83 -3 89 -7 17 -10 71
-10 79 1 3 5 48 11 100 13 98 4 183 10 183 14 0 1 14 3 30 4 17 1 39 4 50 7
11 4 38 9 60 12 34 5 36 4 15 -5 -24 -10 -49 -15 -120 -26 -19 -3 -40 -10 -47
-15 -6 -5 -28 -10 -47 -11 -20 -1 -36 -5 -36 -9 0 -4 -10 -8 -22 -7 -29 0 -78
-7 -98 -14 -20 -8 -105 -24 -225 -42 -55 -9 -121 -19 -147 -24 -54 -9 -65 4
-15 18 17 5 25 10 16 10 -9 1 -43 -7 -75 -18 -33 -10 -78 -22 -102 -26 -23 -4
-79 -20 -125 -36 -45 -16 -83 -29 -84 -29 -1 0 0 7 3 15 6 16 -4 19 -30 9 -15
-6 -15 -8 1 -21 17 -13 16 -14 -5 -8 -27 8 -84 -3 -77 -15 3 -4 -3 -11 -12
-14 -18 -7 -30 6 -39 41 -3 13 -9 23 -13 23 -4 0 -7 17 -8 38 0 99 -4 132 -14
132 -8 0 -10 -21 -5 -70 4 -38 4 -70 -1 -70 -20 1 -30 18 -37 60 -4 25 -9 55
-12 66 -5 19 -2 21 20 17 15 -3 26 -1 26 6 0 6 9 11 20 11 18 0 21 -6 20 -42
0 -68 1 -77 10 -83 5 -3 6 -13 3 -21 -3 -9 0 -20 8 -25 12 -7 12 -9 0 -9 -10
0 -11 -3 -2 -13 6 -8 8 -17 4 -20 -3 -4 -1 -7 5 -7 15 0 14 26 -2 118 -10 53
-10 75 -2 77 139 46 185 32 152 -45 -13 -31 -14 -32 -21 -11 -9 30 -54 59 -65
41 -4 -7 -5 -24 0 -39 4 -14 5 -32 2 -39 -6 -18 34 2 41 20 4 10 8 10 14 1 5
-6 17 -11 28 -10 23 2 34 -38 16 -56 -13 -13 -14 -27 -3 -27 11 0 32 46 32 69
0 11 -10 22 -22 26 -20 6 -20 8 -5 12 29 8 17 83 -17 105 -19 13 45 8 169 -12z
m-225 -86 c0 -8 -4 -14 -10 -14 -5 0 -10 9 -10 21 0 11 5 17 10 14 6 -3 10
-13 10 -21z"/>
<path d="M486 225 c4 -8 10 -15 15 -15 5 0 9 7 9 15 0 8 -7 15 -15 15 -9 0
-12 -6 -9 -15z"/>
<path d="M1795 1075 c-40 -14 -40 -14 -5 -8 19 3 42 9 50 14 22 12 1 9 -45 -6z"/>
<path d="M2206 1073 c-7 -19 1 -33 19 -33 7 0 35 -9 61 -20 26 -12 59 -20 73
-18 22 3 18 7 -28 28 -30 13 -69 32 -87 41 -28 14 -34 14 -38 2z"/>
<path d="M20 1077 c0 -5 70 -179 86 -214 8 -17 14 -36 14 -42 0 -6 5 -11 10
-11 6 0 10 4 10 9 0 6 -4 13 -10 16 -5 3 -10 11 -10 16 0 6 5 7 11 3 8 -4 9 1
4 16 -5 15 -4 20 4 16 6 -4 11 -2 11 3 0 6 -6 11 -13 11 -20 0 -61 77 -45 83
9 3 6 10 -9 22 -26 19 -30 35 -8 35 8 0 15 -4 15 -9 0 -5 44 -9 98 -10 53 -1
99 -6 100 -11 2 -6 8 -10 13 -10 4 0 6 7 2 17 -5 13 -2 15 18 10 13 -4 32 -7
42 -7 10 0 15 -4 12 -10 -4 -6 27 -10 85 -10 l91 0 -3 28 -3 27 -115 6 c-196
11 -410 19 -410 16z m520 -55 c0 -12 -139 -12 -146 -1 -3 5 28 9 70 9 42 0 76
-4 76 -8z"/>
<path d="M1660 1070 c-8 -5 -10 -10 -5 -10 6 0 17 5 25 10 8 5 11 10 5 10 -5
0 -17 -5 -25 -10z"/>
<path d="M600 1038 c0 -22 7 -42 20 -53 20 -18 20 -17 20 8 0 14 -5 29 -10 32
-6 4 -8 10 -5 15 3 4 -2 13 -10 20 -13 11 -15 7 -15 -22z"/>
<path d="M1222 1054 c-7 -7 -12 -16 -12 -19 0 -3 0 -8 0 -11 0 -4 -6 -2 -13 4
-7 6 -31 8 -55 5 l-42 -6 0 -62 c0 -35 -4 -65 -8 -67 -5 -2 -5 -14 -1 -28 l7
-25 1 28 c1 22 8 31 36 43 41 17 95 19 95 2 0 -6 3 -9 6 -6 3 3 0 15 -7 27
-10 15 -11 32 -2 73 6 29 10 54 9 54 0 1 -7 -4 -14 -12z m-24 -46 c15 -15 16
-45 1 -54 -7 -4 -27 -8 -45 -10 -32 -2 -43 12 -44 53 0 21 69 30 88 11z"/>
<path d="M1850 1059 c-13 -9 -12 -10 2 -5 10 3 33 -1 52 -9 49 -21 58 -18 16
5 -41 22 -50 23 -70 9z"/>
<path d="M1685 1044 c-22 -7 -30 -12 -17 -10 14 3 22 -1 22 -10 0 -8 -10 -14
-22 -15 -13 0 -33 -2 -46 -5 -14 -2 -21 0 -17 6 3 5 13 10 22 10 9 0 14 2 11
5 -3 3 -23 2 -44 -3 -35 -7 -37 -9 -19 -19 24 -12 106 -26 87 -14 -9 6 -3 10
20 14 56 9 148 38 148 47 0 4 -12 4 -27 0 -66 -20 -103 -28 -103 -20 0 5 12
13 28 18 15 6 20 10 12 10 -8 0 -33 -6 -55 -14z"/>
<path d="M1568 1043 c7 -3 16 -2 19 1 4 3 -2 6 -13 5 -11 0 -14 -3 -6 -6z"/>
<path d="M680 969 c0 -50 3 -56 35 -82 40 -32 47 -21 11 18 -18 20 -24 35 -22
61 2 20 -2 38 -10 45 -12 10 -14 2 -14 -42z"/>
<path d="M1925 1004 c-22 -8 -45 -12 -52 -10 -7 3 -13 2 -13 -3 0 -5 -21 -13
-47 -19 -113 -25 -179 -44 -188 -53 -5 -6 2 -8 21 -6 38 5 257 60 264 67 16
16 91 18 136 3 27 -9 32 -9 30 5 -2 11 -14 17 -34 18 -17 1 -41 4 -54 7 -13 3
-41 -1 -63 -9z"/>
<path d="M936 993 c-44 -10 -61 -11 -66 -2 -6 8 -9 8 -14 0 -4 -6 -2 -11 3
-11 7 0 11 -24 11 -60 0 -33 1 -60 3 -60 1 0 26 7 56 15 30 8 59 13 64 12 8
-2 11 115 4 119 -1 0 -29 -6 -61 -13z m51 -50 c-6 -42 -3 -39 -52 -47 l-40 -7
-3 39 c-2 38 -2 39 40 49 24 5 47 7 51 5 5 -2 6 -20 4 -39z"/>
<path d="M110 981 c0 -7 32 -11 100 -11 82 0 100 -3 100 -15 0 -8 5 -15 11
-15 5 0 7 5 4 10 -7 11 -4 12 73 15 42 2 52 -1 52 -14 1 -15 2 -15 13 0 16 21
37 13 37 -16 0 -13 5 -27 10 -30 6 -4 8 7 4 29 -4 28 -2 36 10 36 8 0 16 -12
19 -27 4 -26 4 -26 6 5 l1 32 -117 0 c-65 0 -164 3 -220 7 -74 4 -103 3 -103
-6z"/>
<path d="M2875 970 l-40 -7 37 -2 c20 0 39 -7 41 -13 3 -7 6 -3 6 10 1 12 0
21 -1 21 -2 -1 -21 -5 -43 -9z"/>
<path d="M2100 960 c8 -5 22 -9 30 -9 10 0 8 3 -5 9 -27 12 -43 12 -25 0z"/>
<path d="M580 900 c0 -16 -4 -30 -10 -30 -5 0 -10 -4 -10 -10 0 -5 7 -10 15
-10 11 0 15 11 15 40 0 22 -2 40 -5 40 -3 0 -5 -13 -5 -30z"/>
<path d="M1581 914 c0 -11 3 -14 6 -6 3 7 2 16 -1 19 -3 4 -6 -2 -5 -13z"/>
<path d="M200 890 c0 -5 5 -10 11 -10 5 0 7 5 4 10 -3 6 -8 10 -11 10 -2 0 -4
-4 -4 -10z"/>
<path d="M164 848 c-3 -5 -3 -12 0 -15 3 -4 6 -2 6 4 0 6 9 9 20 6 11 -3 20
-3 20 0 0 10 -40 15 -46 5z"/>
<path d="M101 810 c-1 -9 4 -21 10 -27 19 -19 23 -172 6 -221 -13 -36 -13 -53
-2 -118 8 -42 17 -79 20 -82 8 -9 -1 108 -10 131 -4 10 -1 37 6 60 14 42 16
146 5 193 -6 24 -4 25 26 22 31 -3 33 -5 38 -50 4 -29 14 -56 27 -70 12 -13
25 -36 29 -53 l8 -30 7 35 c9 38 -6 110 -21 110 -6 0 -10 10 -10 22 0 17 -3
19 -12 10 -8 -8 -14 -5 -25 15 -18 35 -16 39 7 18 11 -10 23 -16 26 -12 3 3
-6 13 -21 23 -22 14 -32 16 -55 7 -25 -9 -31 -8 -44 11 -11 16 -15 17 -15 6z
m154 -142 c8 -21 13 -38 11 -38 -8 0 -46 67 -46 81 0 20 17 -1 35 -43z"/>
<path d="M1505 804 l-110 -13 105 5 c58 3 109 9 115 15 5 5 7 8 5 7 -3 0 -54
-7 -115 -14z"/>
<path d="M2786 657 c3 -10 9 -15 12 -12 3 3 0 11 -7 18 -10 9 -11 8 -5 -6z"/>
<path d="M296 635 c4 -16 13 -41 20 -55 17 -35 102 -115 111 -106 4 4 -12 23
-35 43 -24 19 -56 61 -72 92 -21 40 -28 47 -24 26z"/>
<path d="M2755 630 c-3 -5 -1 -10 4 -10 6 0 11 5 11 10 0 6 -2 10 -4 10 -3 0
-8 -4 -11 -10z"/>
<path d="M200 595 c0 -14 5 -25 11 -25 6 0 8 -7 5 -16 -5 -13 -2 -15 14 -11
15 4 20 0 20 -16 1 -20 2 -20 11 -4 5 9 19 17 29 17 11 0 20 5 20 11 0 6 -6 9
-14 6 -8 -3 -28 -1 -45 6 -22 8 -31 18 -31 34 0 13 -4 23 -10 23 -5 0 -10 -11
-10 -25z"/>
<path d="M168 543 c7 -3 16 -2 19 1 4 3 -2 6 -13 5 -11 0 -14 -3 -6 -6z"/>
<path d="M316 490 c7 -48 22 -95 28 -89 7 6 -13 99 -24 117 -8 13 -9 6 -4 -28z"/>
<path d="M141 511 c-9 -6 -10 -11 -2 -15 6 -4 11 -2 11 4 0 8 9 10 25 6 14 -4
25 -2 25 4 0 12 -40 13 -59 1z"/>
<path d="M214 498 c3 -13 6 -32 6 -44 0 -11 7 -29 15 -40 15 -18 15 -16 10 26
-9 62 -15 80 -27 80 -6 0 -8 -10 -4 -22z"/>
<path d="M2534 508 c-3 -4 2 -8 10 -8 8 0 17 4 20 8 3 5 -2 9 -10 9 -8 0 -17
-4 -20 -9z"/>
<path d="M2395 430 c-13 -6 -15 -9 -5 -9 8 0 22 4 30 9 18 12 2 12 -25 0z"/>
<path d="M2345 410 c-3 -6 1 -7 9 -4 18 7 21 14 7 14 -6 0 -13 -4 -16 -10z"/>
<path d="M2306 397 c3 -10 9 -15 12 -12 3 3 0 11 -7 18 -10 9 -11 8 -5 -6z"/>
<path d="M75 330 c-3 -5 -1 -10 4 -10 6 0 11 5 11 10 0 6 -2 10 -4 10 -3 0 -8
-4 -11 -10z"/>
<path d="M2090 320 c-9 -6 -10 -10 -3 -10 6 0 15 5 18 10 8 12 4 12 -15 0z"/>
<path d="M20 309 c-14 -4 -23 -8 -20 -9 21 -7 41 -7 46 2 9 14 2 16 -26 7z"/>
<path d="M1905 250 c-3 -6 1 -7 9 -4 18 7 21 14 7 14 -6 0 -13 -4 -16 -10z"/>
<path d="M1628 153 c7 -3 16 -2 19 1 4 3 -2 6 -13 5 -11 0 -14 -3 -6 -6z"/>
<path d="M1580 140 l-25 -8 28 -1 c15 -1 27 4 27 9 0 6 -1 10 -2 9 -2 -1 -14
-5 -28 -9z"/>
<path d="M1428 93 c7 -3 16 -2 19 1 4 3 -2 6 -13 5 -11 0 -14 -3 -6 -6z"/>
<path d="M1294 54 c-18 -14 -18 -15 4 -4 12 6 22 13 22 15 0 8 -5 6 -26 -11z"/>
<path d="M1358 63 c6 -2 18 -2 25 0 6 3 1 5 -13 5 -14 0 -19 -2 -12 -5z"/>
</g>
</svg>
