<?xml version="1.0" standalone="no"?>
<!DOCTYPE svg PUBLIC "-//W3C//DTD SVG 20010904//EN"
 "http://www.w3.org/TR/2001/REC-SVG-20010904/DTD/svg10.dtd">
<svg version="1.0" xmlns="http://www.w3.org/2000/svg"
 width="300.000000pt" height="257.000000pt" viewBox="0 0 300.000000 257.000000"
 preserveAspectRatio="xMidYMid meet">
<metadata>
Created by potrace 1.10, written by Peter Selinger 2001-2011
</metadata>
<g transform="translate(0.000000,257.000000) scale(0.100000,-0.100000)"
fill="#008b8b" stroke="none">
<path d="M2567 1855 c-27 -20 -46 -40 -43 -43 3 -3 25 10 48 29 l42 34 -27
-36 c-15 -20 -27 -41 -27 -47 0 -7 -6 -12 -14 -12 -10 0 -12 -11 -8 -47 4 -38
2 -45 -9 -41 -8 3 -22 1 -30 -6 -19 -13 -37 -62 -20 -52 6 4 11 13 11 21 0 8
7 11 20 8 25 -7 26 -33 1 -33 -10 0 -22 -7 -25 -16 -5 -13 -2 -15 14 -11 43
11 20 -35 -52 -108 -63 -62 -91 -80 -208 -138 -345 -169 -722 -251 -1397 -303
-218 -17 -287 -34 -135 -34 285 1 733 58 1032 132 228 56 470 151 609 240 l76
49 -44 -40 c-179 -159 -700 -326 -1181 -376 -205 -22 -479 -37 -534 -30 -41 6
-49 5 -39 -6 17 -18 485 -18 603 -1 389 58 638 124 895 239 132 58 202 103
267 168 124 125 159 190 159 292 0 68 14 109 51 150 11 11 18 29 16 38 -2 14
-12 10 -51 -20z"/>
<path d="M1957 1793 c-13 -13 -7 -35 8 -29 11 4 15 -1 15 -19 0 -15 -6 -25
-14 -25 -8 0 -16 -5 -18 -10 -2 -6 -37 -19 -78 -29 -41 -10 -129 -33 -195 -51
-66 -18 -169 -42 -228 -55 -116 -24 -122 -22 -115 27 3 20 10 24 68 31 126 15
505 78 533 89 15 6 29 14 32 18 6 9 -28 9 -40 -1 -11 -8 -162 -34 -435 -74
-96 -14 -238 -39 -315 -54 -77 -16 -171 -32 -210 -36 -38 -4 -74 -10 -80 -13
-5 -3 -16 -7 -25 -7 -8 -1 -51 -5 -95 -9 -118 -10 -244 -29 -240 -36 4 -6 118
4 162 15 20 5 23 1 29 -55 8 -76 22 -88 16 -15 -4 46 -2 56 13 61 11 5 22 1
30 -9 7 -10 16 -17 21 -17 5 0 23 -13 40 -29 24 -23 31 -38 33 -75 2 -45 1
-46 -19 -34 -15 10 -20 21 -18 45 1 18 -3 38 -10 45 -9 9 -12 2 -12 -34 0 -41
4 -49 30 -65 30 -18 43 -63 18 -63 -7 -1 -2 -7 12 -15 28 -16 269 -19 410 -5
41 4 -29 5 -156 2 l-231 -5 -6 39 c-10 58 -8 144 2 144 5 0 12 -8 14 -17 4
-14 5 -12 6 5 1 15 7 22 22 22 11 0 92 14 181 30 88 17 164 30 170 30 6 0 8
-25 6 -62 -5 -71 7 -111 31 -104 58 17 179 36 198 31 16 -4 23 -1 23 10 0 8 5
15 12 15 6 0 9 2 7 5 -3 2 -59 -6 -124 -20 -66 -13 -124 -20 -128 -16 -5 5 -7
24 -5 42 3 32 6 34 68 50 35 10 68 15 72 13 5 -3 8 4 8 15 0 17 -6 21 -31 21
-17 0 -28 4 -24 10 3 6 17 10 31 10 14 0 23 4 20 9 -3 5 6 9 22 8 56 0 83 3
78 12 -3 4 7 8 22 8 41 1 72 7 72 14 0 7 66 24 88 22 6 0 12 4 12 9 0 6 6 8
14 5 17 -7 86 13 86 24 0 7 72 23 86 19 3 -1 12 7 20 17 12 16 13 14 14 -24 0
-24 -4 -43 -9 -43 -13 0 -7 -68 7 -82 15 -15 16 -78 1 -78 -6 0 -8 7 -5 16 10
27 -3 53 -37 70 -31 16 -66 52 -67 67 0 5 5 5 11 2 19 -12 79 5 79 22 0 19 12
21 -255 -51 -228 -62 -249 -69 -193 -61 33 5 37 3 46 -22 l10 -28 1 33 c1 17
6 32 12 32 5 0 7 -4 4 -10 -8 -13 26 -13 45 1 13 9 12 10 -2 5 -10 -3 -20 -1
-23 3 -5 8 35 24 43 17 2 -2 4 -13 5 -25 1 -11 5 -21 9 -21 5 0 6 11 2 24 -3
13 -1 27 5 30 6 4 11 0 11 -8 0 -13 4 -13 35 0 34 14 36 14 45 -8 9 -19 9 -18
4 10 -3 20 -2 32 5 32 6 0 12 -4 12 -10 1 -5 2 -14 3 -20 1 -14 21 -8 20 6 -1
7 9 17 23 23 20 9 25 8 30 -7 10 -26 25 -38 66 -51 30 -10 37 -18 37 -38 0
-13 -3 -23 -7 -21 -5 2 -21 10 -38 17 -16 7 -38 17 -47 22 -10 5 -23 9 -30 9
-19 -1 54 -39 75 -40 28 0 20 -30 -9 -30 -29 0 -114 46 -114 62 0 7 -5 6 -14
-1 -8 -7 -25 -9 -39 -6 -14 4 -34 2 -44 -5 -15 -9 -12 -10 17 -5 31 5 32 4 10
-5 -13 -6 -36 -8 -50 -5 -20 4 -22 3 -10 -5 11 -9 7 -10 -17 -5 -29 6 -32 4
-26 -11 6 -15 1 -16 -41 -11 -43 6 -73 22 -72 39 2 15 -12 18 -17 4 -4 -11 7
-23 37 -41 41 -24 44 -24 91 -10 27 8 52 12 57 9 4 -3 8 -1 8 4 0 5 15 13 33
17 17 4 38 9 44 10 17 4 83 -17 83 -26 0 -11 -77 -22 -91 -13 -7 4 -9 3 -6 -3
4 -6 -21 -17 -61 -27 -37 -10 -76 -21 -87 -26 -19 -8 -19 -9 3 -9 28 -1 183
36 225 54 24 10 38 10 73 -1 38 -11 42 -11 37 3 -6 17 6 16 50 -2 20 -8 20 -8
18 140 -1 55 3 114 8 130 8 25 9 18 10 -44 1 -92 8 -90 13 4 l4 70 76 15 c71
14 110 32 96 45 -9 10 -150 -22 -159 -36 -6 -10 -9 -6 -9 14 0 24 -3 27 -20
22 -11 -4 -20 -2 -20 4 0 12 -13 15 -23 4z m-638 -204 c-5 -22 -7 -44 -5 -48
3 -4 -68 -20 -158 -35 -89 -15 -189 -33 -220 -40 l-58 -14 -54 41 c-30 22 -53
41 -52 42 2 2 24 0 50 -4 35 -6 45 -5 41 5 -3 8 2 11 14 8 10 -3 83 7 163 21
168 29 180 30 180 11 0 -14 56 -33 67 -23 3 3 -15 16 -39 28 l-43 23 60 12
c33 6 61 12 61 13 1 0 -2 -17 -7 -40z m67 -86 l39 -17 -40 -6 c-22 -4 -50 -10
-62 -14 -19 -6 -22 -4 -19 21 2 15 4 29 5 31 3 7 44 0 77 -15z"/>
<path d="M902 1501 c28 -23 38 -26 38 -12 0 5 -8 11 -17 15 -10 3 -25 9 -33
12 -8 4 -3 -3 12 -15z"/>
<path d="M2430 1755 c-25 -8 -60 -16 -78 -17 -18 -1 -36 -6 -38 -10 -3 -5 -9
-6 -14 -3 -5 3 -23 -4 -42 -14 -18 -11 -73 -36 -123 -56 -92 -37 -146 -73 -95
-62 14 2 50 11 81 20 56 15 57 15 111 -12 30 -15 52 -33 50 -39 -2 -7 3 -10
12 -6 9 3 22 1 29 -5 10 -8 14 -7 14 4 0 8 -17 21 -38 29 -20 8 -40 20 -44 26
-3 5 -18 10 -32 10 -21 0 -23 3 -14 14 9 11 9 15 -1 19 -7 3 -2 6 12 6 20 1
22 3 10 11 -12 8 -11 10 6 10 11 0 25 5 31 11 23 23 165 28 189 8 19 -15 36
-8 24 11 -6 9 -24 14 -51 14 -25 -1 -36 2 -28 6 21 12 72 15 88 6 10 -6 12 -5
7 2 -4 7 -1 12 9 12 9 0 13 5 10 10 -8 13 -30 12 -85 -5z m-243 -111 c-3 -3
-12 -4 -19 -1 -8 3 -5 6 6 6 11 1 17 -2 13 -5z m-87 -24 c-8 -5 -19 -10 -25
-10 -5 0 -3 5 5 10 8 5 20 10 25 10 6 0 3 -5 -5 -10z"/>
<path d="M2365 1690 c-8 -12 20 -24 35 -15 5 3 10 10 10 16 0 12 -37 12 -45
-1z"/>
<path d="M2286 1663 c4 -25 3 -26 -9 -11 -21 26 -28 10 -11 -23 15 -31 38 -41
27 -13 -4 12 -2 15 8 12 8 -3 14 -10 14 -16 0 -6 5 -16 11 -22 8 -8 13 -5 16
13 4 19 1 24 -10 19 -11 -4 -14 -1 -9 11 4 11 2 14 -7 11 -7 -3 -16 2 -19 10
-9 23 26 20 48 -4 16 -18 19 -18 41 -3 16 10 35 13 55 9 20 -4 28 -2 23 5 -6
11 -48 8 -91 -6 -18 -6 -23 -3 -23 9 0 9 -8 16 -19 16 -11 0 -26 3 -35 6 -12
5 -14 0 -10 -23z"/>
<path d="M950 1618 c-63 -10 -133 -20 -155 -22 -50 -3 -77 -15 -68 -30 3 -6 1
-6 -8 2 -7 6 -20 12 -28 12 -13 0 -13 -2 0 -16 11 -10 24 -13 43 -8 21 5 24 9
14 15 -8 6 0 8 22 6 47 -3 370 45 370 55 0 12 -63 7 -190 -14z"/>
<path d="M2391 1624 c-18 -8 -31 -17 -28 -20 3 -3 22 2 42 10 20 9 41 13 46
10 5 -3 9 0 9 5 0 15 -28 12 -69 -5z"/>
<path d="M2442 1565 c-27 -57 -28 -63 -1 -39 30 27 41 52 31 69 -6 12 -13 4
-30 -30z"/>
<path d="M2395 1590 c-3 -5 -15 -10 -26 -10 -10 0 -19 -4 -19 -10 0 -12 0 -12
39 1 17 6 31 15 31 20 0 12 -17 11 -25 -1z"/>
<path d="M2011 1561 c7 -19 61 -39 84 -31 17 6 15 9 -15 18 -19 5 -43 13 -54
18 -13 5 -17 3 -15 -5z"/>
<path d="M2163 1556 c-24 -5 -43 -12 -43 -17 0 -12 42 -22 49 -12 3 6 24 14
46 20 35 8 37 10 15 14 -14 3 -44 1 -67 -5z"/>
<path d="M2359 1538 c-27 -16 -37 -18 -52 -8 -10 6 -22 9 -25 6 -3 -3 0 -6 6
-6 22 0 12 -19 -17 -35 -26 -13 -33 -13 -66 0 -36 15 -55 13 -55 -6 0 -6 4 -8
8 -5 13 8 82 -16 76 -26 -3 -5 -14 -6 -24 -3 -23 7 -63 -12 -55 -26 6 -9 -13
-13 -45 -11 -8 0 -58 -13 -110 -29 -52 -17 -155 -43 -228 -59 l-133 -28 -42
24 c-50 29 -57 29 -57 6 0 -20 40 -49 49 -34 4 6 15 6 30 1 13 -5 22 -11 19
-14 -2 -2 -60 -12 -128 -22 -103 -15 -194 -18 -508 -18 -354 0 -384 2 -393 18
-6 9 -17 17 -26 17 -14 0 -14 -2 3 -15 18 -14 18 -14 -7 -13 -21 2 -26 7 -27
30 -1 25 2 27 27 22 16 -4 32 -1 35 5 4 6 15 11 24 11 15 0 15 -2 2 -10 -11
-7 -6 -10 20 -9 27 0 31 2 15 8 -18 7 -17 8 6 13 28 5 67 -16 50 -26 -6 -4
-33 -10 -61 -13 -27 -3 -50 -10 -50 -15 0 -6 7 -7 16 -4 9 3 48 7 87 7 40 1
62 4 49 6 -17 3 -21 9 -17 24 4 11 2 19 -4 19 -6 0 -12 17 -12 38 -2 36 -2 36
-8 7 -5 -26 -11 -30 -42 -32 -34 -2 -37 1 -43 29 -9 44 -8 48 9 48 10 0 15
-10 15 -27 0 -21 3 -24 9 -14 5 8 7 20 4 28 -3 7 0 13 5 13 6 0 13 -10 15 -22
4 -20 4 -19 6 5 l1 27 -177 -2 c-98 -1 -141 -4 -95 -5 47 -2 82 -8 82 -14 0
-6 5 -7 12 -3 8 5 9 2 5 -9 -4 -10 -2 -29 4 -43 17 -47 0 -39 -21 9 -17 38
-24 45 -43 41 -13 -2 -40 -5 -60 -6 -25 -2 -37 -8 -37 -18 -1 -15 -26 24 -30
45 -1 6 -6 16 -12 23 -6 7 -9 14 -7 15 2 2 43 1 92 -2 48 -4 88 -3 90 2 1 4
18 3 37 -3 19 -5 63 -10 97 -10 56 0 63 2 63 20 0 17 -7 20 -52 21 -29 0 -123
4 -208 8 -85 5 -156 7 -157 6 -2 -1 14 -45 36 -98 26 -65 35 -99 28 -106 -7
-7 -7 -14 0 -23 19 -23 26 -130 11 -173 -11 -32 -12 -51 -2 -98 15 -75 28 -87
17 -17 -4 30 -6 69 -4 85 2 17 4 65 5 107 1 68 3 78 21 82 31 9 32 8 27 -24
-3 -20 4 -44 22 -74 30 -51 32 -66 11 -66 -8 0 -15 9 -15 20 0 11 -4 20 -10
20 -12 0 -13 -30 -1 -49 5 -7 14 -10 20 -7 6 4 11 0 12 -11 0 -10 3 -13 6 -5
2 6 13 12 24 12 10 0 19 5 19 11 0 6 -7 9 -15 5 -11 -4 -14 4 -13 37 1 23 -2
53 -6 67 -7 21 1 16 43 -25 66 -64 67 -46 0 21 l-51 51 28 7 c15 4 30 3 34 -1
6 -8 52 -111 63 -145 8 -21 27 -22 252 -8 352 22 699 68 905 120 201 50 423
133 555 208 87 49 95 56 90 83 -2 10 0 21 6 24 13 9 11 22 -5 28 -7 3 -28 -4
-47 -15z m21 -12 c0 -2 -7 -7 -16 -10 -8 -3 -12 -2 -9 4 6 10 25 14 25 6z m8
-32 c-4 -22 -156 -103 -288 -155 -219 -85 -476 -144 -812 -184 -218 -27 -653
-59 -667 -50 -5 2 -14 26 -21 52 -7 27 -18 54 -24 62 -9 11 31 12 264 7 288
-8 535 2 736 29 225 31 513 115 699 205 114 55 118 56 113 34z m-1758 -100 c0
-15 -16 -19 -24 -5 -3 4 -17 6 -31 3 -14 -2 -25 0 -25 5 0 5 18 9 40 10 29 2
40 -2 40 -13z m1470 6 c-8 -5 -22 -9 -30 -9 -10 0 -8 3 5 9 27 12 43 12 25 0z
m-1604 -68 c-4 -18 -4 -22 2 -13 6 8 12 9 16 3 3 -6 0 -12 -6 -15 -23 -8 -35
4 -30 29 2 14 0 24 -7 24 -6 0 -11 -16 -11 -35 0 -43 26 -62 53 -38 20 19 35
10 18 -11 -16 -19 -62 -29 -74 -17 -6 6 -28 11 -48 11 -33 0 -37 3 -35 25 0
14 5 25 10 25 5 0 2 8 -5 17 -10 11 -10 14 -1 9 6 -4 12 -3 12 2 0 15 72 30
93 20 14 -7 17 -16 13 -36z m108 18 c0 -13 -4 -25 -10 -27 -6 -2 -11 10 -11
27 0 17 5 29 11 27 6 -2 10 -14 10 -27z m29 0 c3 -11 1 -20 -4 -20 -5 0 -9 9
-9 20 0 11 2 20 4 20 2 0 6 -9 9 -20z m-66 -22 c-3 -7 -5 -2 -5 12 0 14 2 19
5 13 2 -7 2 -19 0 -25z m-96 -97 c0 -3 2 -24 4 -45 4 -38 4 -39 -11 -18 -9 14
-13 31 -9 43 5 15 4 19 -4 15 -6 -4 -11 -1 -11 8 0 15 29 12 31 -3z"/>
<path d="M399 1303 c-12 -16 -12 -17 1 -7 8 6 22 14 30 17 13 5 12 6 -1 6 -9
1 -23 -7 -30 -16z"/>
<path d="M1815 1532 c-11 -2 -24 -8 -30 -14 -9 -9 43 -1 54 8 8 7 -4 10 -24 6z"/>
<path d="M2195 1520 c3 -5 15 -10 26 -10 11 0 17 5 14 10 -3 6 -15 10 -26 10
-11 0 -17 -4 -14 -10z"/>
<path d="M2250 1519 c0 -5 5 -7 10 -4 6 3 10 8 10 11 0 2 -4 4 -10 4 -5 0 -10
-5 -10 -11z"/>
<path d="M2010 1488 c0 -16 109 -60 123 -51 6 3 -16 19 -49 34 -68 32 -74 33
-74 17z"/>
<path d="M2115 1480 c3 -5 10 -10 16 -10 5 0 9 5 9 10 0 6 -7 10 -16 10 -8 0
-12 -4 -9 -10z"/>
<path d="M2484 1450 c-4 -22 -12 -40 -19 -40 -7 0 -51 -36 -98 -80 -119 -110
-202 -150 -480 -231 -294 -85 -699 -169 -817 -169 -36 0 -113 7 -171 16 -118
17 -257 22 -311 11 -36 -8 -36 -7 -43 32 -3 21 -13 47 -21 58 -11 14 -11 8 2
-36 16 -56 9 -76 -23 -64 -7 3 -19 1 -26 -5 -6 -5 -31 -16 -55 -23 -33 -9 -41
-16 -37 -29 13 -41 41 -210 35 -210 -3 0 -16 9 -27 20 -12 10 -33 22 -47 26
-32 8 -50 36 -34 52 9 9 9 12 0 12 -19 0 -26 -28 -14 -55 13 -27 90 -65 134
-65 16 0 45 7 66 17 20 9 43 15 49 14 7 -1 70 17 140 39 75 24 165 45 218 51
526 59 1034 217 1319 409 44 29 102 62 130 72 60 23 91 49 116 98 18 36 36
120 26 120 -3 0 -9 -18 -12 -40z m-74 -114 c0 -2 -8 -10 -17 -17 -16 -13 -17
-12 -4 4 13 16 21 21 21 13z m-315 -195 c-16 -14 -224 -97 -310 -124 -180 -56
-420 -98 -543 -96 l-57 1 60 9 c33 5 101 16 150 25 50 9 100 18 112 19 11 2
30 6 42 10 29 9 72 18 96 19 11 1 26 5 34 10 8 5 24 10 35 12 12 1 53 12 91
24 39 11 84 25 100 30 17 5 66 22 110 39 90 34 93 34 80 22z m-1225 -210 c47
-7 92 -16 100 -19 15 -5 40 -8 112 -11 31 -1 36 -4 32 -18 -4 -13 -3 -15 4 -5
5 7 30 14 56 15 25 1 46 4 46 7 0 3 29 6 65 7 35 0 62 -4 59 -8 -3 -5 -13 -9
-22 -9 -9 0 -35 -6 -57 -14 -22 -8 -64 -17 -94 -20 -29 -4 -57 -8 -60 -11 -4
-2 -29 -6 -56 -10 -27 -3 -60 -8 -74 -11 -20 -4 -23 -3 -11 5 8 6 25 11 37 11
12 0 25 5 29 11 7 12 -1 11 -61 -4 -11 -3 -51 -13 -90 -22 -38 -9 -100 -27
-138 -40 -37 -13 -65 -20 -62 -14 9 14 -14 11 -45 -7 -41 -25 -56 -13 -64 48
-4 29 -9 63 -12 74 -5 18 1 24 38 36 78 25 117 3 83 -48 -20 -30 -10 -48 11
-20 13 19 14 19 14 -8 0 -15 -5 -36 -10 -47 -7 -12 -7 -19 -1 -19 24 0 28 124
5 151 -13 14 -9 16 33 14 27 -1 86 -7 133 -14z m-320 -11 c0 -5 -4 -10 -10
-10 -5 0 -10 5 -10 10 0 6 5 10 10 10 6 0 10 -4 10 -10z m-30 -29 c0 -16 3
-43 6 -60 4 -20 3 -31 -5 -31 -13 0 -25 28 -35 83 -6 33 -5 37 14 37 15 0 20
-6 20 -29z m-59 12 c1 -5 3 -20 4 -35 9 -73 62 -114 75 -58 4 17 8 21 13 12
13 -20 16 -51 6 -57 -5 -4 -9 -1 -9 4 0 6 -4 11 -9 11 -6 0 -6 -12 -1 -28 11
-39 -16 -39 -29 0 -13 37 -32 37 -21 -1 9 -33 3 -45 -26 -49 -27 -4 -33 12
-40 111 -5 61 -3 81 7 88 17 11 29 11 30 2z m119 -163 c0 -5 -2 -10 -4 -10 -3
0 -8 5 -11 10 -3 6 -1 10 4 10 6 0 11 -4 11 -10z"/>
<path d="M627 904 c-10 -10 -9 -74 1 -74 5 0 17 9 27 20 18 20 18 21 -1 41
-11 11 -23 16 -27 13z"/>
<path d="M660 820 c0 -5 5 -10 10 -10 6 0 10 5 10 10 0 6 -4 10 -10 10 -5 0
-10 -4 -10 -10z"/>
<path d="M750 1457 c0 -13 7 -30 15 -37 13 -11 15 -9 15 13 0 13 -7 30 -15 37
-13 11 -15 9 -15 -13z"/>
<path d="M1138 1414 l4 -52 35 10 c20 5 43 8 52 5 13 -3 15 4 12 46 -2 27 -6
45 -10 40 -3 -7 -24 -8 -51 -4 l-45 7 3 -52z m73 26 c11 0 12 -37 0 -44 -12
-8 -61 17 -61 31 0 14 20 23 38 17 8 -2 18 -4 23 -4z"/>
<path d="M1015 1429 c-16 -5 -37 -8 -45 -6 -12 3 -15 -8 -15 -59 0 -35 3 -57
8 -49 7 13 71 32 90 27 4 -1 7 21 7 48 0 28 -3 50 -7 49 -5 0 -21 -5 -38 -10z
m35 -26 c0 -27 -12 -41 -41 -48 -18 -4 -26 -2 -26 7 0 7 -4 21 -8 30 -5 12 0
18 17 21 47 9 58 7 58 -10z"/>
<path d="M2514 1408 c-3 -4 6 -8 20 -8 20 0 27 -6 32 -27 10 -47 12 -49 13
-13 0 19 -3 40 -7 47 -8 13 -50 14 -58 1z"/>
<path d="M1935 1400 c3 -5 11 -10 16 -10 6 0 7 5 4 10 -3 6 -11 10 -16 10 -6
0 -7 -4 -4 -10z"/>
<path d="M1131 1334 c0 -11 3 -14 6 -6 3 7 2 16 -1 19 -3 4 -6 -2 -5 -13z"/>
<path d="M2560 1305 c0 -8 5 -15 10 -15 6 0 10 7 10 15 0 8 -4 15 -10 15 -5 0
-10 -7 -10 -15z"/>
<path d="M1455 1280 l-50 -7 53 -1 c29 -1 52 2 52 8 0 6 -1 9 -2 8 -2 0 -25
-4 -53 -8z"/>
<path d="M1528 1283 c6 -2 18 -2 25 0 6 3 1 5 -13 5 -14 0 -19 -2 -12 -5z"/>
<path d="M2512 1210 c-7 -11 -8 -20 -2 -20 5 0 14 9 20 20 6 11 7 20 3 20 -5
0 -14 -9 -21 -20z"/>
<path d="M2465 1170 c3 -6 0 -10 -8 -10 -8 0 -20 -7 -27 -15 -19 -22 6 -20 36
4 20 16 21 20 8 25 -8 3 -12 2 -9 -4z"/>
<path d="M508 1135 c6 -31 87 -123 98 -112 5 4 -6 19 -24 33 -18 14 -42 43
-52 65 -24 45 -29 49 -22 14z"/>
<path d="M2388 1113 c-10 -2 -18 -8 -18 -13 0 -12 33 -5 38 8 2 7 2 11 0 11
-1 -1 -11 -3 -20 -6z"/>
<path d="M2342 1084 c-7 -8 -18 -11 -24 -8 -7 4 -8 2 -4 -4 8 -14 46 2 46 18
0 13 -2 12 -18 -6z"/>
<path d="M396 1051 c-15 -6 -16 -10 -7 -16 8 -4 16 -2 21 5 12 19 29 3 36 -35
10 -53 28 -56 19 -4 -4 24 -9 47 -12 52 -5 9 -32 8 -57 -2z"/>
<path d="M496 1015 c4 -27 8 -52 10 -54 8 -9 2 65 -7 84 -6 13 -7 4 -3 -30z"/>
<path d="M2270 1050 c0 -13 11 -13 30 0 12 8 11 10 -7 10 -13 0 -23 -4 -23
-10z"/>
<path d="M2235 1030 c-3 -5 -2 -10 4 -10 5 0 13 5 16 10 3 6 2 10 -4 10 -5 0
-13 -4 -16 -10z"/>
<path d="M2198 1013 c7 -3 16 -2 19 1 4 3 -2 6 -13 5 -11 0 -14 -3 -6 -6z"/>
<path d="M2120 977 c0 -5 -4 -6 -9 -2 -5 3 -12 1 -16 -5 -4 -6 -10 -8 -15 -5
-4 3 -14 -3 -21 -12 -16 -18 -10 -17 76 16 45 18 47 20 18 18 -18 -1 -33 -6
-33 -10z"/>
<path d="M2020 940 c0 -5 5 -10 11 -10 5 0 7 5 4 10 -3 6 -8 10 -11 10 -2 0
-4 -4 -4 -10z"/>
<path d="M1989 926 c-2 -3 -18 -8 -34 -11 -17 -3 -36 -7 -43 -9 -7 -1 -18 -8
-25 -15 -10 -10 -6 -10 18 -1 17 7 41 14 54 16 28 6 62 23 45 24 -6 0 -13 -2
-15 -4z"/>
<path d="M337 914 c-3 -4 -32 -12 -64 -18 -48 -10 -59 -16 -61 -34 -2 -15 2
-22 12 -22 9 0 24 -16 34 -36 14 -27 20 -33 25 -21 3 9 -1 21 -9 27 -16 14
-19 35 -4 25 6 -3 10 1 10 9 0 9 -4 16 -10 16 -5 0 -10 5 -10 11 0 5 4 8 10 4
5 -3 25 1 44 9 19 8 36 12 39 10 2 -3 7 2 10 11 6 15 -13 21 -26 9z"/>
<path d="M1850 881 c0 -6 5 -13 10 -16 6 -3 10 1 10 9 0 9 -4 16 -10 16 -5 0
-10 -4 -10 -9z"/>
<path d="M1772 853 c-6 -2 -10 -9 -7 -13 7 -11 35 -2 35 11 0 10 -8 10 -28 2z"/>
<path d="M1700 818 c0 -4 4 -8 9 -8 6 0 12 4 15 8 3 5 -1 9 -9 9 -8 0 -15 -4
-15 -9z"/>
<path d="M1655 808 c-11 -7 -27 -12 -35 -13 -8 -1 -39 -9 -69 -18 -30 -10 -65
-17 -78 -17 -13 0 -22 -4 -18 -9 4 -7 60 -8 60 -1 0 1 9 3 20 5 10 2 28 8 40
13 11 5 39 16 63 23 24 7 45 16 48 21 7 11 -7 9 -31 -4z"/>
<path d="M1378 729 c-8 -6 1 -9 25 -9 20 0 37 2 37 4 0 9 -50 12 -62 5z"/>
<path d="M1285 690 c-8 -13 5 -13 25 0 13 8 13 10 -2 10 -9 0 -20 -4 -23 -10z"/>
<path d="M1246 683 c-4 -4 -24 -14 -44 -20 l-37 -13 43 4 c48 5 56 9 50 26 -2
6 -7 8 -12 3z"/>
</g>
</svg>
